<svg width="197" height="43" viewBox="0 0 197 43" fill="none" xmlns="http://www.w3.org/2000/svg">
<g filter="url(#filter0_d_109_1226)">
<path d="M62.722 11.6274C59.4092 11.6274 57.8632 13.8213 57.8632 17.1121V28.3009C57.8632 31.5917 59.4092 33.7856 62.722 33.7856C66.0347 33.7856 67.5807 31.5917 67.5807 28.3009V25.6683H65.3722V28.5203C65.3722 30.4948 64.4888 31.5917 62.722 31.5917C60.9551 31.5917 60.0717 30.4948 60.0717 28.5203V16.8927C60.0717 14.9183 60.9551 13.8213 62.722 13.8213C64.4888 13.8213 65.3722 14.9183 65.3722 16.8927V18.8672H67.5807V16.8927C67.5807 13.8213 66.0347 11.6274 62.722 11.6274ZM89.2242 28.9591L90.1076 33.3468H92.537L88.3408 11.8468H84.8072L80.611 33.5662H82.8195L83.7029 29.1785H89.2242V28.9591ZM86.3531 14.4795L88.7825 26.9846H83.9238L86.3531 14.4795ZM111.53 33.3468V14.0407H115.506V11.8468H105.126V14.0407H109.101V33.5662H111.53V33.3468ZM139.799 11.8468H137.37L135.382 19.306L134.057 24.7907L132.511 19.306L130.303 11.8468H127.873L132.953 27.8621L132.511 29.1785C132.069 30.7142 131.186 31.3723 129.419 31.3723V33.5662C133.395 33.7856 134.499 32.0305 135.161 28.7397L139.799 11.8468ZM153.05 11.8468V33.5662H155.48V25.0101H157.688C161.222 25.0101 162.768 23.255 162.768 19.7448V17.1121C162.768 13.8213 161.222 11.8468 157.909 11.8468H153.05ZM155.48 22.5968V13.8213H157.909C159.676 13.8213 160.339 14.6989 160.339 16.8927V19.7448C160.339 21.7193 159.455 22.5968 157.688 22.5968H155.48ZM183.749 23.6938V33.3468H186.178V11.8468H183.749V21.4999H178.448V11.8468H176.019V33.5662H178.448V23.9132H183.749V23.6938Z" fill="white"/>
</g>
<path fill-rule="evenodd" clip-rule="evenodd" d="M9.05493 23.694C9.05493 31.8113 15.6805 38.1735 23.6312 38.1735C28.4899 38.1735 32.6861 35.9797 35.3363 32.4695C32.907 34.2246 29.815 35.3215 26.5022 35.3215C18.3307 35.3215 11.926 28.7399 11.926 20.8419C11.926 17.5511 13.0303 14.4797 14.7971 12.0664C11.2635 14.6991 9.05493 18.8674 9.05493 23.694Z" fill="#201547"/>
<path d="M9.27581 23.6941C9.27581 27.643 10.8218 31.1533 13.472 33.7859C16.1222 36.4186 19.6559 37.9543 23.6312 37.9543C25.8397 37.9543 28.0482 37.5155 30.0359 36.4186C31.5819 35.541 33.1278 34.4441 34.4529 33.1277C33.5695 33.7859 32.4653 34.2247 31.361 34.6635C29.8151 35.1022 28.2691 35.3216 26.7231 35.3216C22.7478 35.3216 18.9933 33.7859 16.3431 30.9339C13.6929 28.3012 11.926 24.5716 11.926 20.6226C11.926 19.0869 12.1469 17.3318 12.5886 16.0155C13.0303 14.9186 13.472 13.8216 14.1346 12.9441C12.8094 14.2604 11.7052 15.5767 10.8218 17.3318C9.71751 19.0869 9.27581 21.2808 9.27581 23.6941ZM13.2511 34.0053C10.6009 31.3726 8.83411 27.643 8.83411 23.6941C8.83411 21.2808 9.49666 19.0869 10.3801 17.1124C11.4843 15.1379 12.8094 13.3828 14.7971 11.8471L15.6805 11.189L15.018 12.0665C14.1346 13.3828 13.2511 14.6992 12.8094 16.2349C12.3677 17.5512 12.1469 19.0869 12.1469 20.842C12.1469 24.791 13.6929 28.3012 16.3431 30.9339C18.9933 33.5665 22.5269 35.1022 26.5023 35.1022C28.0482 35.1022 29.5942 34.8828 31.1402 34.4441C32.6861 34.0053 34.0112 33.1277 35.3364 32.2502L36.2198 31.592L35.3364 32.4696C34.0112 34.2247 32.2444 35.7604 30.0359 36.8573C28.0482 37.9543 25.8397 38.3931 23.4103 38.3931C19.435 38.3931 15.9014 36.6379 13.2511 34.0053Z" fill="#140848"/>
<path fill-rule="evenodd" clip-rule="evenodd" d="M14.7971 12.0664C13.0303 14.4797 11.926 17.5511 11.926 20.8419C11.926 28.7399 18.5516 35.3215 26.5023 35.3215C29.815 35.3215 32.907 34.2246 35.3363 32.4695C37.1032 30.0562 38.2074 26.9848 38.2074 23.694C38.2074 15.796 31.5819 9.21436 23.6312 9.21436C20.3184 9.21436 17.2265 10.3113 14.7971 12.0664Z" fill="#9DA1A2"/>
<path d="M15.0179 12.2859C14.1345 13.3829 13.2511 14.6992 12.8094 16.2349C12.3677 17.5512 12.1469 19.087 12.1469 20.8421C12.1469 24.791 13.6928 28.3012 16.3431 30.9339C18.9933 33.5665 22.5269 35.1023 26.5023 35.1023C28.0482 35.1023 29.5942 34.8829 31.1402 34.4441C32.6861 34.0053 34.0112 33.1278 35.1155 32.2502C35.9989 30.9339 36.6614 29.6176 37.324 28.3012C37.7657 26.9849 37.9866 25.4492 37.9866 23.6941C37.9866 19.7451 36.4406 16.2349 33.7904 13.6023C32.4615 12.2707 30.8785 11.2161 29.1339 10.5004C27.3894 9.78458 25.5186 9.42201 23.6312 9.43389C22.0852 9.43389 20.5393 9.65328 18.9933 10.0921C17.4473 10.5308 16.1222 11.189 15.0179 12.2859ZM12.5886 16.0155C13.0303 14.4798 13.9137 13.1635 14.7971 11.8472C16.1222 10.9696 17.4473 10.0921 18.9933 9.65328C20.5393 9.21451 22.0852 8.99512 23.6312 8.99512C27.6065 8.99512 31.361 10.5308 34.0112 13.3829C36.6614 16.0155 38.4283 19.7451 38.4283 23.6941C38.4283 25.2298 38.2074 26.9849 37.7657 28.3012C37.324 29.8369 36.4406 31.1533 35.5572 32.4696C34.2321 33.3472 32.907 34.2247 31.361 34.6635C29.815 35.1023 28.2691 35.3216 26.7231 35.3216C22.7478 35.3216 18.9933 33.7859 16.3431 30.9339C13.6928 28.3012 11.926 24.5716 11.926 20.6227C11.7052 19.087 11.926 17.5512 12.5886 16.0155Z" fill="#140848"/>
<path fill-rule="evenodd" clip-rule="evenodd" d="M21.6435 7.02047C17.4473 8.55618 14.1345 11.847 12.8094 16.0154L21.6435 7.02047ZM40.4159 25.449L31.361 34.4439C35.5572 33.1276 38.87 29.6174 40.4159 25.449ZM40.6368 17.1123L22.7478 34.8827C23.852 35.1021 25.1771 35.3215 26.2814 35.3215L41.0785 20.6225C41.0785 19.3062 40.8576 18.2092 40.6368 17.1123ZM37.7657 11.6276L17.2265 32.0307C17.889 32.6888 18.7724 33.1276 19.6558 33.5664L39.3117 14.0409C39.0908 13.1633 38.4283 12.2858 37.7657 11.6276ZM33.3487 7.89802L13.6928 27.4235C14.1345 28.3011 14.7971 29.1786 15.2388 29.8368L35.778 9.43373C34.8946 8.99496 34.2321 8.33679 33.3487 7.89802ZM26.7231 6.3623L11.926 20.8419C11.926 22.1582 12.1469 23.2552 12.3677 24.3521L30.2567 6.58169C29.1525 6.3623 27.8274 6.3623 26.7231 6.3623Z" fill="#F2CE14"/>
<path d="M20.9809 7.45939C19.2141 8.11756 17.6682 9.21449 16.3431 10.5308C15.0179 12.0665 13.9137 13.6022 13.2511 15.3574L20.9809 7.45939ZM16.1222 10.3114C17.6682 8.77572 19.435 7.67878 21.6435 6.80123L22.3061 6.58184L21.8644 7.24001L12.8094 16.2349L12.3677 16.6737L12.5886 16.0155C13.2511 13.8216 14.5762 11.8471 16.1222 10.3114ZM39.9742 26.1073L32.0235 34.0053C33.7904 33.3471 35.3363 32.2502 36.6614 30.9339C37.9866 29.6176 39.0908 28.0818 39.9742 26.1073ZM31.1401 34.4441L40.1951 25.4492L40.6368 25.0104L40.4159 25.6686C39.7534 27.8624 38.4283 29.6176 36.8823 31.1533C35.3363 32.689 33.3487 34.0053 31.361 34.6635L30.6984 34.8829L31.1401 34.4441ZM40.6368 17.3318L23.1895 34.6635C23.6312 34.8829 24.0729 34.8829 24.7354 34.8829C25.398 34.8829 25.8397 35.1022 26.5022 35.1022L41.0785 20.6227C41.0785 19.9645 41.0785 19.5257 40.8576 18.8676C40.8576 18.2094 40.6368 17.7706 40.6368 17.3318ZM22.5269 34.6635L40.4159 16.8931L40.6368 16.6737V16.8931C40.8576 17.5512 40.8576 17.99 41.0785 18.6482C41.0785 19.3063 41.2993 19.9645 41.2993 20.4033L26.5022 35.3216C25.8397 35.3216 25.1771 35.3216 24.7354 35.1022C24.0729 35.1022 23.4103 34.8829 22.9686 34.6635H22.5269ZM37.7657 11.8471L17.4473 32.0308C17.889 32.2502 18.1099 32.4696 18.5516 32.689C18.9933 32.9084 19.2141 33.1278 19.6558 33.3471L39.0908 14.041C38.87 13.6022 38.6491 13.1635 38.4283 12.9441C38.4283 12.5053 37.9866 12.0665 37.7657 11.8471ZM17.2265 31.8114L37.7657 11.4084L37.9866 11.189L38.2074 11.4084C38.4283 11.8471 38.87 12.2859 39.0908 12.5053L39.7534 13.8216V14.041L19.8767 33.7859H19.6558L18.3307 33.1278C17.889 32.9084 17.4473 32.4696 17.0056 32.2502L17.2265 31.8114ZM33.3487 8.11756L13.9137 27.4237C14.1345 27.8624 14.3554 28.3012 14.5762 28.5206C14.7971 28.9594 15.0179 29.1788 15.2388 29.6176L35.5572 9.43388C35.1155 9.21449 34.8946 8.99511 34.4529 8.77572C34.0112 8.55633 33.7904 8.33694 33.3487 8.11756ZM13.472 27.4237L33.1278 7.67878L34.4529 8.33694C34.8946 8.55633 35.3363 8.99511 35.5572 9.21449L35.778 9.43388L35.5572 9.65327L15.0179 30.0563L14.7971 30.2757L14.5762 30.0563C14.3554 29.6176 13.9137 29.1788 13.6928 28.9594C13.9137 28.5206 13.6928 28.0818 13.472 27.4237ZM26.7231 6.36245L12.1469 21.0614C12.1469 21.7196 12.1469 22.1584 12.3677 22.8165C12.3677 23.2553 12.5886 23.9135 12.5886 24.3522L30.0359 7.02062C29.3733 6.80123 28.9316 6.58184 28.4899 6.58184C27.8274 6.58184 27.3857 6.36245 26.7231 6.36245ZM11.7052 20.842L26.5022 6.14307C27.1648 6.14307 27.8274 6.14307 28.2691 6.36245C28.9316 6.36245 29.5942 6.58184 30.0359 6.80123H30.2567L30.0359 7.02062L12.1469 24.791L11.926 25.0104V24.791C11.7052 24.1329 11.7052 23.6941 11.4843 23.0359C11.7052 22.1584 11.7052 21.5002 11.7052 20.842Z" fill="#140848"/>
<path fill-rule="evenodd" clip-rule="evenodd" d="M38.87 10.5308L10.3801 38.8318C11.0426 39.4899 11.926 40.1481 12.8094 40.5869L40.6368 12.944C40.1951 12.0665 39.5325 11.1889 38.87 10.5308Z" fill="#201547"/>
<path d="M38.8699 10.75L10.6009 38.8316C10.8217 39.051 11.2634 39.2704 11.7051 39.7091C12.1468 39.9285 12.3677 40.1479 12.8094 40.3673L40.4159 12.9438C40.195 12.5051 39.9742 12.2857 39.7533 11.8469C39.3116 11.4081 39.0908 11.1887 38.8699 10.75ZM10.1592 38.8316L38.6491 10.3112L38.8699 10.0918L39.0908 10.3112C39.3116 10.75 39.7533 10.9693 39.9742 11.4081C40.195 11.8469 40.6368 12.2857 40.8576 12.7244V12.9438L12.8094 40.8061H12.5886C12.1468 40.5867 11.7051 40.1479 11.2634 39.9285C10.8217 39.7091 10.38 39.2704 10.1592 39.051V38.8316Z" fill="#140848"/>
<defs>
<filter id="filter0_d_109_1226" x="53.8632" y="11.6274" width="136.315" height="30.1582" filterUnits="userSpaceOnUse" color-interpolation-filters="sRGB">
<feFlood flood-opacity="0" result="BackgroundImageFix"/>
<feColorMatrix in="SourceAlpha" type="matrix" values="0 0 0 0 0 0 0 0 0 0 0 0 0 0 0 0 0 0 127 0" result="hardAlpha"/>
<feOffset dy="4"/>
<feGaussianBlur stdDeviation="2"/>
<feComposite in2="hardAlpha" operator="out"/>
<feColorMatrix type="matrix" values="0 0 0 0 0 0 0 0 0 0 0 0 0 0 0 0 0 0 0.25 0"/>
<feBlend mode="normal" in2="BackgroundImageFix" result="effect1_dropShadow_109_1226"/>
<feBlend mode="normal" in="SourceGraphic" in2="effect1_dropShadow_109_1226" result="shape"/>
</filter>
</defs>
</svg>
