<svg width="32" height="32" viewBox="0 0 32 32" fill="none" xmlns="http://www.w3.org/2000/svg">
<path d="M10.6667 4V6.66667C10.6667 8.55228 10.6667 9.49509 10.0809 10.0809C9.49509 10.6667 8.55228 10.6667 6.66667 10.6667H4" stroke="white" stroke-width="2" stroke-linejoin="round"/>
<path d="M21.3333 4V6.66667C21.3333 8.55228 21.3333 9.49509 21.9191 10.0809C22.5049 10.6667 23.4477 10.6667 25.3333 10.6667H28" stroke="white" stroke-width="2" stroke-linejoin="round"/>
<path d="M10.6667 28V25.3333C10.6667 23.4477 10.6667 22.5049 10.0809 21.9191C9.49509 21.3333 8.55228 21.3333 6.66667 21.3333H4" stroke="white" stroke-width="2" stroke-linejoin="round"/>
<path d="M21.3333 28V25.3333C21.3333 23.4477 21.3333 22.5049 21.9191 21.9191C22.5049 21.3333 23.4477 21.3333 25.3333 21.3333H28" stroke="white" stroke-width="2" stroke-linejoin="round"/>
</svg>
