<svg width="733" height="653" viewBox="0 0 733 653" fill="none" xmlns="http://www.w3.org/2000/svg">
<path d="M527.943 489.238C618.017 399.172 618.017 253.146 527.943 163.079C437.87 73.0132 291.833 73.0132 201.76 163.079C111.687 253.146 111.687 399.172 201.76 489.238C291.833 579.304 437.87 579.304 527.943 489.238Z" fill="url(#paint0_linear_193_11543)"/>
<path opacity="0.4" d="M428.518 104.469C423.181 112.08 417.889 119.745 412.644 127.466C405.304 139.044 396.155 149.371 385.546 158.055C374.077 166.551 361.88 174.017 349.095 180.364C335.505 187.461 321.97 194.751 308.132 201.408C258.999 224.955 205.271 243.083 150.691 240.58C147.772 247.779 145.229 255.124 143.07 262.586C173.717 272.049 208.242 268.473 238.971 262.119C295.368 250.428 349.48 228.806 396.826 195.879C419.178 180.379 440.413 163.328 460.375 144.851C466.619 139.074 473.359 132.775 479.632 125.98C463.526 116.771 446.363 109.547 428.518 104.469Z" fill="#FFDBB2"/>
<path opacity="0.4" d="M224.254 212.301C239.798 208.23 254.295 201.298 269.289 195.632C282.081 190.818 295.396 187.847 308.298 183.363C350.829 168.536 396.111 143.201 416.249 101.333C367.209 90.1186 315.847 95.2473 269.993 115.937C224.139 136.628 186.31 171.744 162.273 215.933C183.016 216.043 204.227 217.556 224.254 212.301Z" fill="#FFDBB2"/>
<path opacity="0.4" d="M200.348 307.205C224.337 307.205 247.116 301.895 269.839 294.358C285.052 289.269 300.101 283.52 315.094 277.853C329.729 272.352 344.612 267.538 359.11 261.348C384.941 250.159 409.409 236.057 432.04 219.316C460.761 198.107 486.538 173.487 511.325 147.794C506.208 143.586 500.926 139.542 495.451 135.828C492.535 138.359 489.592 140.862 486.621 143.338C469.152 157.862 451.407 172.277 433.553 186.333C401.765 211.025 366.774 231.291 329.537 246.576C293.113 261.816 255.451 275.46 216.744 283.603C198.202 287.509 178.807 290.617 159.798 289.104C152.363 288.624 145.039 287.049 138.065 284.428C136.717 291.855 135.754 299.392 135.121 307.04C156.689 304.509 178.56 307.177 200.348 307.205Z" fill="#FFDBB2"/>
<path opacity="0.4" d="M153.854 398.917C168.493 398.483 183.082 397.012 197.513 394.516C210.691 392.425 223.813 389.922 236.935 387.364C251.637 384.37 266.583 382.731 281.585 382.467C298.091 382.22 314.239 381.422 329.755 375.673C344.753 369.644 359.134 362.182 372.699 353.391C399.384 337.079 427.197 322.774 453.524 305.829C479.852 288.884 506.757 271.031 525.051 245.311C536.055 229.549 545.024 212.301 555.312 196.044C551.021 189.772 546.436 183.729 541.557 177.916C541.282 178.741 541.007 179.539 540.759 180.337C536.66 193.101 532.919 206.937 525.134 218.051C509.123 240.937 484.226 256.232 460.704 270.316C435.065 285.748 410.085 301.703 384.253 316.392C357.816 331.412 329.728 345.441 299.604 351.19C265.519 357.682 230.525 360.13 195.972 362.909C179.879 364.202 164.391 366.925 148.49 369.566C145.216 370.143 141.887 370.639 138.586 371.024C140.456 380.485 142.919 389.819 145.959 398.972C148.765 399.027 151.461 398.972 153.854 398.917Z" fill="#FFDBB2"/>
<path opacity="0.4" d="M252.811 481.964C269.318 482.872 285.824 484.193 302.33 482.487C316.637 480.939 330.738 477.869 344.393 473.327C358.149 468.788 371.739 463.314 385.301 457.95C398.864 452.586 412.812 447.772 426.347 442.27C451.397 432.206 475.585 420.117 498.671 406.124C535.425 383.622 570.776 355.399 595.37 319.556C595.111 310.912 594.376 302.289 593.169 293.726C586.356 306.165 577.556 317.408 567.117 327.011C534.27 356.829 494.792 377.598 457.076 400.265C431.354 415.697 405.796 431.927 378.149 443.81C348.547 456.547 317.626 462.158 285.824 466.752C255.012 471.209 222.027 474.345 191.436 466.752C187.392 465.734 183.403 464.552 179.441 463.341C184.091 469.607 189.058 475.63 194.324 481.387C213.814 480.384 233.346 480.577 252.811 481.964Z" fill="#FFDBB2"/>
<path opacity="0.4" d="M562.386 423.427C526.898 470.823 470.887 495.718 416.582 514.974C401.301 520.764 385.449 524.913 369.291 527.353C352.419 529.433 335.388 529.921 318.425 528.811C292.097 527.243 266.155 523.309 239.91 519.981C270.379 539.622 305.048 551.808 341.105 555.551C377.163 559.293 413.596 554.488 447.45 541.523C481.304 528.559 511.626 507.8 535.959 480.931C560.292 454.061 577.95 421.836 587.503 386.868C579.195 399.11 571.217 411.626 562.386 423.427Z" fill="#FFDBB2"/>
<g style="mix-blend-mode:multiply" opacity="0.6">
<path d="M364.862 95.5291C319.244 95.5291 274.651 109.055 236.721 134.397C198.792 159.739 169.229 195.758 151.772 237.9C134.315 280.042 129.747 326.414 138.647 371.151C147.546 415.889 169.513 456.983 201.77 489.237C234.026 521.491 275.124 543.457 319.865 552.355C364.606 561.254 410.981 556.687 453.126 539.231C495.271 521.776 531.293 492.215 556.637 454.289C581.981 416.362 595.508 371.772 595.508 326.158C595.508 264.991 571.208 206.33 527.953 163.079C484.699 119.827 426.033 95.5291 364.862 95.5291ZM347.613 494.398C309.856 494.398 272.948 483.203 241.555 462.227C210.162 441.252 185.694 411.439 171.247 376.559C156.799 341.679 153.02 303.298 160.388 266.27C167.756 229.242 185.94 195.231 212.64 168.537C239.34 141.843 273.356 123.666 310.388 116.304C347.42 108.941 385.803 112.725 420.684 127.177C455.565 141.628 485.376 166.098 506.349 197.492C527.321 228.885 538.512 265.793 538.507 303.546C538.507 328.612 533.569 353.431 523.975 376.589C514.382 399.746 500.32 420.786 482.594 438.509C464.867 456.231 443.823 470.289 420.663 479.878C397.502 489.468 372.68 494.402 347.613 494.398Z" fill="#E28481"/>
</g>
<g style="mix-blend-mode:color-dodge" opacity="0.4">
<path d="M188.272 448.047C157.213 398.78 146.346 355.757 144.255 322.692C144.271 322.592 144.271 322.49 144.255 322.389C142.975 311.924 142.488 301.376 142.797 290.837C136.773 325.305 136.47 379.771 171.188 439.712C229.868 540.997 339.249 556.924 394.269 547.517C394.214 547.517 260.679 562.509 188.272 448.047Z" fill="#FCD7B8"/>
</g>
<path d="M730.309 178.466C716.306 140.945 633.225 134.453 520.652 156.047C525.109 160.146 529.428 164.437 533.582 168.866C607.86 157.065 660.13 161.906 669.016 185.811C677.269 208.037 646.54 242.313 590.694 279.064C540.515 312.074 470.116 347.119 389.621 377.186C303.953 409.15 223.183 429.451 162.138 436.218C102.028 442.93 61.0097 436.631 53.1692 415.67C44.7235 393.085 76.6905 357.902 134.27 320.574C134.435 314.32 134.829 308.149 135.453 302.061C42.6052 357.71 -11.4526 414.157 2.05501 450.357C15.1499 485.43 88.6025 493.298 190.061 476.655C253.334 466.257 327.447 446.396 404.641 417.513C477.186 390.444 542.551 359.195 595.453 327.643C689.236 271.774 743.899 214.915 730.309 178.466Z" fill="#787A9F"/>
<path style="mix-blend-mode:multiply" d="M69.5644 350.063C55.8093 366.292 27.4736 399.577 42.4667 422.079C55.9193 442.353 88.354 439.959 109.427 439.327C113.086 439.327 116.745 439.052 120.431 438.832C83.4296 438.832 59.083 431.377 53.2233 415.725C44.7776 393.14 76.7446 357.957 134.324 320.629C134.489 314.375 134.883 308.204 135.507 302.116C115.699 313.972 97.68 325.855 81.6965 337.601C77.4042 341.506 73.3527 345.667 69.5644 350.063Z" fill="url(#paint1_linear_193_11543)"/>
<path style="mix-blend-mode:multiply" d="M533.582 168.921C607.86 157.12 660.13 161.961 669.015 185.866C676.031 204.682 655.04 232.162 614.517 262.476C623.843 257.69 632.949 252.463 642.028 247.127C653.637 240.25 667.53 232.382 674.875 220.636C682.22 208.89 689.648 192.963 681.918 179.869C670.694 160.806 646.154 155.304 625.989 151.453C612.67 149.085 599.236 147.414 585.742 146.447C565.494 148.482 543.733 151.701 520.68 156.102C525.109 160.201 529.428 164.492 533.582 168.921Z" fill="url(#paint2_linear_193_11543)"/>
<g style="mix-blend-mode:color-dodge">
<path d="M103.841 332.787C103.841 332.787 -3.69668 391.462 12.5894 440.344C28.8756 489.226 157.211 483.807 346.125 428.406C346.125 428.406 134.625 483.422 62.1906 458.087C-10.2441 432.752 36.8535 379.276 103.841 332.787Z" fill="#FCD1C2"/>
</g>
<g style="mix-blend-mode:color-dodge">
<path d="M695.231 171.286C660.018 144.466 601.091 154.644 601.091 154.644C601.091 154.644 707.556 156.102 686.538 201.711C669.097 239.617 621.146 276.203 580.898 300.905C583.98 299.612 587.006 298.154 590.004 296.751C644.585 264.237 735.259 201.793 695.231 171.286Z" fill="#FCD1C2"/>
</g>
<defs>
<linearGradient id="paint0_linear_193_11543" x1="269.568" y1="102.75" x2="452.075" y2="530.788" gradientUnits="userSpaceOnUse">
<stop offset="0.05" stop-color="#CF9D8B"/>
<stop offset="0.2" stop-color="#EFB072"/>
<stop offset="0.46" stop-color="#C99080"/>
<stop offset="0.5" stop-color="#CD9786"/>
<stop offset="0.55" stop-color="#D6AA97"/>
<stop offset="0.61" stop-color="#E6CAB3"/>
<stop offset="0.62" stop-color="#EAD1B9"/>
<stop offset="0.66" stop-color="#D8B69E"/>
<stop offset="0.71" stop-color="#BA8870"/>
<stop offset="0.77" stop-color="#A1624A"/>
<stop offset="0.83" stop-color="#8D452D"/>
<stop offset="0.89" stop-color="#7F3018"/>
<stop offset="0.95" stop-color="#77230B"/>
<stop offset="1" stop-color="#741F07"/>
</linearGradient>
<linearGradient id="paint1_linear_193_11543" x1="96.6071" y1="383.925" x2="53.1466" y2="265.528" gradientUnits="userSpaceOnUse">
<stop stop-color="#E5E0DF"/>
<stop offset="1" stop-color="#8CA99C"/>
</linearGradient>
<linearGradient id="paint2_linear_193_11543" x1="611.409" y1="195.026" x2="567.948" y2="76.6287" gradientUnits="userSpaceOnUse">
<stop stop-color="#E5E0DF"/>
<stop offset="1" stop-color="#8CA99C"/>
</linearGradient>
</defs>
</svg>
