<svg width="176" height="39" viewBox="0 0 176 39" fill="none" xmlns="http://www.w3.org/2000/svg">
<path d="M56.0359 10.4863C53.0762 10.4863 51.6951 12.4649 51.6951 15.4327V25.5233C51.6951 28.4912 53.0762 30.4697 56.0359 30.4697C58.9955 30.4697 60.3767 28.4912 60.3767 25.5233V23.1491H58.4036V25.7212C58.4036 27.5019 57.6143 28.4912 56.0359 28.4912C54.4574 28.4912 53.6682 27.5019 53.6682 25.7212V15.2349C53.6682 13.4542 54.4574 12.4649 56.0359 12.4649C57.6143 12.4649 58.4036 13.4542 58.4036 15.2349V17.0156H60.3767V15.2349C60.3767 12.4649 58.9955 10.4863 56.0359 10.4863ZM79.713 26.1169L80.5022 30.074H82.6727L78.9238 10.6842H75.7668L72.0179 30.2719H73.991L74.7803 26.3148H79.713V26.1169ZM77.148 13.0584L79.3184 24.3362H74.9776L77.148 13.0584ZM99.6413 30.074V12.6627H103.193V10.6842H93.9193V12.6627H97.4709V30.2719H99.6413V30.074ZM124.897 10.6842H122.726L120.951 17.4113L119.767 22.3576L118.386 17.4113L116.413 10.6842H114.242L118.78 25.1276L118.386 26.3148C117.991 27.6997 117.202 28.2933 115.623 28.2933V30.2719C119.175 30.4697 120.161 28.8869 120.753 25.919L124.897 10.6842ZM136.735 10.6842V30.2719H138.906V22.5555H140.879C144.036 22.5555 145.417 20.9727 145.417 17.807V15.4327C145.417 12.4649 144.036 10.6842 141.076 10.6842H136.735ZM138.906 20.3791V12.4649H141.076C142.655 12.4649 143.247 13.2563 143.247 15.2349V17.807C143.247 19.5877 142.457 20.3791 140.879 20.3791H138.906ZM164.161 21.3684V30.074H166.332V10.6842H164.161V19.3898H159.426V10.6842H157.256V30.2719H159.426V21.5662H164.161V21.3684Z" fill="#140848"/>
<path fill-rule="evenodd" clip-rule="evenodd" d="M8.08966 21.3682C8.08966 28.6888 14.0089 34.4266 21.1121 34.4266C25.4529 34.4266 29.2018 32.4481 31.5695 29.2824C29.3991 30.8652 26.6367 31.8545 23.6771 31.8545C16.3767 31.8545 10.6547 25.9188 10.6547 18.7961C10.6547 15.8282 11.6412 13.0582 13.2197 10.8818C10.0628 13.2561 8.08966 17.0154 8.08966 21.3682Z" fill="#201547"/>
<path d="M8.28701 21.3686C8.28701 24.93 9.66818 28.0957 12.0359 30.4699C14.4036 32.8442 17.5606 34.2292 21.1121 34.2292C23.0852 34.2292 25.0583 33.8335 26.8341 32.8442C28.2153 32.0528 29.5964 31.0635 30.7803 29.8764C29.9911 30.4699 29.0045 30.8656 28.018 31.2613C26.6368 31.6571 25.2556 31.8549 23.8745 31.8549C20.3229 31.8549 16.9686 30.4699 14.6009 27.8978C12.2332 25.5235 10.6547 22.16 10.6547 18.5986C10.6547 17.2136 10.852 15.6308 11.2467 14.4436C11.6413 13.4544 12.0359 12.4651 12.6278 11.6737C11.444 12.8608 10.4574 14.0479 9.66818 15.6308C8.68163 17.2136 8.28701 19.1922 8.28701 21.3686ZM11.8386 30.6678C9.47087 28.2935 7.8924 24.93 7.8924 21.3686C7.8924 19.1922 8.48432 17.2136 9.27356 15.4329C10.2601 13.6522 11.444 12.0694 13.2197 10.6844L14.009 10.0908L13.4171 10.8822C12.6278 12.0694 11.8386 13.2565 11.444 14.6415C11.0493 15.8286 10.852 17.2136 10.852 18.7965C10.852 22.3579 12.2332 25.5235 14.6009 27.8978C16.9686 30.2721 20.1256 31.6571 23.6771 31.6571C25.0583 31.6571 26.4395 31.4592 27.8206 31.0635C29.2018 30.6678 30.3857 29.8764 31.5695 29.0849L32.3588 28.4914L31.5695 29.2828C30.3857 30.8656 28.8072 32.2506 26.8341 33.2399C25.0583 34.2292 23.0852 34.6249 20.9148 34.6249C17.3632 34.6249 14.2063 33.042 11.8386 30.6678Z" fill="white"/>
<path fill-rule="evenodd" clip-rule="evenodd" d="M13.2197 10.8822C11.6413 13.0586 10.6547 15.8286 10.6547 18.7964C10.6547 25.9192 16.574 31.8549 23.6771 31.8549C26.6368 31.8549 29.3991 30.8656 31.5695 29.2827C33.148 27.1063 34.1345 24.3363 34.1345 21.3685C34.1345 14.2457 28.2153 8.31006 21.1121 8.31006C18.1525 8.31006 15.3901 9.29934 13.2197 10.8822Z" fill="#9DA1A2"/>
<path d="M13.417 11.0801C12.6278 12.0694 11.8385 13.2565 11.4439 14.6415C11.0493 15.8287 10.852 17.2136 10.852 18.7965C10.852 22.3579 12.2332 25.5236 14.6009 27.8978C16.9686 30.2721 20.1255 31.6571 23.6771 31.6571C25.0583 31.6571 26.4394 31.4592 27.8206 31.0635C29.2018 30.6678 30.3856 29.8764 31.3722 29.085C32.1614 27.8978 32.7533 26.7107 33.3453 25.5236C33.7399 24.3364 33.9372 22.9515 33.9372 21.3686C33.9372 17.8072 32.556 14.6415 30.1883 12.2673C29.0011 11.0664 27.5868 10.1153 26.0283 9.46982C24.4697 8.82429 22.7983 8.49729 21.1121 8.50802C19.7309 8.50802 18.3497 8.70587 16.9686 9.10158C15.5874 9.49729 14.4036 10.0909 13.417 11.0801ZM11.2466 14.4437C11.6412 13.0587 12.4305 11.8716 13.2197 10.6844C14.4036 9.893 15.5874 9.10158 16.9686 8.70587C18.3497 8.31016 19.7309 8.1123 21.1121 8.1123C24.6637 8.1123 28.0179 9.49729 30.3856 12.0694C32.7533 14.4437 34.3318 17.8072 34.3318 21.3686C34.3318 22.7536 34.1345 24.3364 33.7399 25.5236C33.3453 26.9086 32.556 28.0957 31.7668 29.2828C30.5829 30.0742 29.3991 30.8657 28.0179 31.2614C26.6367 31.6571 25.2556 31.8549 23.8744 31.8549C20.3228 31.8549 16.9686 30.47 14.6009 27.8978C12.2332 25.5236 10.6547 22.16 10.6547 18.5986C10.4574 17.2136 10.6547 15.8287 11.2466 14.4437Z" fill="white"/>
<path fill-rule="evenodd" clip-rule="evenodd" d="M19.3363 6.33136C15.5875 7.71635 12.6278 10.6842 11.444 14.4434L19.3363 6.33136ZM36.1076 22.9512L28.018 31.0633C31.7668 29.8761 34.7265 26.7105 36.1076 22.9512ZM36.305 15.4327L20.3229 31.459C21.3094 31.6568 22.4933 31.8547 23.4798 31.8547L36.6996 18.5984C36.6996 17.4113 36.5023 16.422 36.305 15.4327ZM33.7399 10.4863L15.3902 28.8869C15.9821 29.4804 16.7713 29.8761 17.5606 30.2719L35.1211 12.6627C34.9238 11.8713 34.3319 11.0799 33.7399 10.4863ZM29.7937 7.12278L12.2332 24.7319C12.6278 25.5233 13.2197 26.3147 13.6144 26.9083L31.9641 8.50777C31.1749 8.11206 30.583 7.51849 29.7937 7.12278ZM23.8745 5.73779L10.6547 18.7962C10.6547 19.9834 10.852 20.9727 11.0493 21.9619L27.0314 5.93565C26.0449 5.73779 24.861 5.73779 23.8745 5.73779Z" fill="#F2CE14"/>
<path d="M18.7444 6.72717C17.1659 7.32074 15.7847 8.31001 14.6009 9.49715C13.417 10.8821 12.4305 12.2671 11.8385 13.85L18.7444 6.72717ZM14.4036 9.29929C15.7847 7.9143 17.3632 6.92503 19.3363 6.1336L19.9282 5.93575L19.5336 6.52932L11.4439 14.6414L11.0493 15.0371L11.2466 14.4435C11.8385 12.465 13.0224 10.6843 14.4036 9.29929ZM35.713 23.5449L28.6098 30.6677C30.1883 30.0741 31.5695 29.0848 32.7533 27.8977C33.9372 26.7106 34.9237 25.3256 35.713 23.5449ZM27.8206 31.0634L35.9103 22.9513L36.3049 22.5556L36.1076 23.1492C35.5157 25.1277 34.3318 26.7106 32.9507 28.0955C31.5695 29.4805 29.7937 30.6677 28.0179 31.2612L27.426 31.4591L27.8206 31.0634ZM36.3049 15.6307L20.7175 31.2612C21.1121 31.4591 21.5067 31.4591 22.0986 31.4591C22.6906 31.4591 23.0852 31.6569 23.6771 31.6569L36.6995 18.5985C36.6995 18.0049 36.6995 17.6092 36.5022 17.0156C36.5022 16.4221 36.3049 16.0264 36.3049 15.6307ZM20.1255 31.2612L36.1076 15.2349L36.3049 15.0371V15.2349C36.5022 15.8285 36.5022 16.2242 36.6995 16.8178C36.6995 17.4114 36.8968 18.0049 36.8968 18.4006L23.6771 31.8548C23.0852 31.8548 22.4933 31.8548 22.0986 31.6569C21.5067 31.6569 20.9148 31.4591 20.5202 31.2612H20.1255ZM33.7399 10.6843L15.5874 28.887C15.982 29.0848 16.1794 29.2827 16.574 29.4805C16.9686 29.6784 17.1659 29.8762 17.5605 30.0741L34.9237 12.6628C34.7264 12.2671 34.5291 11.8714 34.3318 11.6736C34.3318 11.2778 33.9372 10.8821 33.7399 10.6843ZM15.3901 28.6891L33.7399 10.2886L33.9372 10.0907L34.1345 10.2886C34.3318 10.6843 34.7264 11.08 34.9237 11.2778L35.5157 12.465V12.6628L17.7578 30.4698H17.5605L16.3767 29.8762C15.982 29.6784 15.5874 29.2827 15.1928 29.0848L15.3901 28.6891ZM29.7937 7.32074L12.4305 24.732C12.6278 25.1277 12.8251 25.5234 13.0224 25.7213C13.2197 26.117 13.417 26.3148 13.6143 26.7106L31.7668 8.50787C31.3722 8.31001 31.1749 8.11216 30.7802 7.9143C30.3856 7.71645 30.1883 7.51859 29.7937 7.32074ZM12.0359 24.732L29.5964 6.92503L30.7802 7.51859C31.1749 7.71645 31.5695 8.11216 31.7668 8.31001L31.9641 8.50787L31.7668 8.70572L13.417 27.1063L13.2197 27.3041L13.0224 27.1063C12.8251 26.7106 12.4305 26.3148 12.2332 26.117C12.4305 25.7213 12.2332 25.3256 12.0359 24.732ZM23.8744 5.73789L10.852 18.9942C10.852 19.5878 10.852 19.9835 11.0493 20.577C11.0493 20.9728 11.2466 21.5663 11.2466 21.962L26.8341 6.33146C26.2421 6.13361 25.8475 5.93575 25.4529 5.93575C24.861 5.93575 24.4663 5.73789 23.8744 5.73789ZM10.4574 18.7963L23.6771 5.54004C24.269 5.54004 24.861 5.54004 25.2556 5.73789C25.8475 5.73789 26.4394 5.93575 26.8341 6.1336H27.0314L26.8341 6.33146L10.852 22.3577L10.6547 22.5556V22.3577C10.4574 21.7642 10.4574 21.3685 10.2601 20.7749C10.4574 19.9835 10.4574 19.3899 10.4574 18.7963Z" fill="white"/>
<path fill-rule="evenodd" clip-rule="evenodd" d="M34.7265 9.49707L9.27356 35.0204C9.86549 35.614 10.6547 36.2075 11.444 36.6032L36.305 11.6735C35.9103 10.8821 35.3184 10.0906 34.7265 9.49707Z" fill="#201547"/>
<path d="M34.7265 9.69513L9.47085 35.0206C9.66816 35.2185 10.0628 35.4163 10.4574 35.812C10.852 36.0099 11.0493 36.2077 11.4439 36.4056L36.1076 11.6737C35.9103 11.278 35.713 11.0801 35.5157 10.6844C35.1211 10.2887 34.9238 10.0908 34.7265 9.69513ZM9.07623 35.0206L34.5291 9.29942L34.7265 9.10156L34.9238 9.29942C35.1211 9.69513 35.5157 9.89298 35.713 10.2887C35.9103 10.6844 36.3049 11.0801 36.5022 11.4758V11.6737L11.4439 36.8013H11.2466C10.852 36.6034 10.4574 36.2077 10.0628 36.0099C9.66816 35.812 9.27354 35.4163 9.07623 35.2185V35.0206Z" fill="white"/>
</svg>
