<?xml version="1.0" encoding="utf-8"?><svg viewBox="0 0 197 43" xmlns="http://www.w3.org/2000/svg" xmlns:xlink="http://www.w3.org/1999/xlink"><style>:root>svg{display:none}:root>svg:target{display:block}</style><svg fill="none" viewBox="0 0 14 12" id="footer--arrow-link-black" xmlns="http://www.w3.org/2000/svg"><path d="M1 11L12.704 1M1 1h11.704v10" stroke="#050505" stroke-width="2" stroke-linecap="round" stroke-linejoin="round"/></svg><svg fill="none" viewBox="0 0 14 12" id="footer--arrow-link-black" xmlns="http://www.w3.org/2000/svg"><path d="M1 11L12.704 1M1 1h11.704v10" stroke="#050505" stroke-width="2" stroke-linecap="round" stroke-linejoin="round"/></svg><svg fill="none" viewBox="0 0 197 43" id="footer--logo" xmlns="http://www.w3.org/2000/svg"><g filter="url(#ca)"><path d="M62.722 11.627c-3.313 0-4.859 2.194-4.859 5.485v11.189c0 3.29 1.546 5.485 4.859 5.485 3.313 0 4.859-2.194 4.859-5.485v-2.633h-2.209v2.852c0 1.975-.883 3.072-2.65 3.072s-2.65-1.097-2.65-3.072V16.893c0-1.975.883-3.072 2.65-3.072s2.65 1.097 2.65 3.072v1.974h2.209v-1.974c0-3.072-1.546-5.266-4.859-5.266zM89.224 28.96l.884 4.388h2.429l-4.196-21.5h-3.534l-4.196 21.72h2.209l.883-4.389h5.521v-.219zm-2.87-14.48l2.428 12.506h-4.858l2.43-12.505zm25.176 18.868V14.04h3.976v-2.194h-10.38v2.194h3.975v19.525h2.429v-.22zm28.269-21.5h-2.429l-1.988 7.459-1.325 5.485-1.546-5.485-2.208-7.46h-2.43l5.08 16.016-.442 1.317c-.442 1.535-1.325 2.193-3.092 2.193v2.194c3.976.22 5.08-1.535 5.742-4.826l4.638-16.893zm13.251 0v21.72h2.43V25.01h2.208c3.534 0 5.08-1.755 5.08-5.265v-2.633c0-3.29-1.546-5.265-4.859-5.265h-4.859zm2.43 10.75V13.82h2.429c1.767 0 2.43.878 2.43 3.072v2.852c0 1.974-.884 2.852-2.651 2.852h-2.208zm28.269 1.097v9.653h2.429v-21.5h-2.429V21.5h-5.301v-9.653h-2.429v21.72h2.429v-9.654h5.301v-.22z" fill="#fff"/></g><path fill-rule="evenodd" clip-rule="evenodd" d="M9.055 23.694c0 8.117 6.626 14.48 14.576 14.48 4.859 0 9.055-2.194 11.705-5.705a15.15 15.15 0 01-8.834 2.852c-8.171 0-14.576-6.581-14.576-14.48 0-3.29 1.104-6.361 2.871-8.775-3.534 2.633-5.742 6.801-5.742 11.628z" fill="#201547"/><path d="M9.276 23.694c0 3.949 1.546 7.46 4.196 10.092 2.65 2.633 6.184 4.168 10.16 4.168 2.208 0 4.416-.438 6.404-1.535 1.546-.878 3.092-1.975 4.417-3.291-.884.658-1.988 1.097-3.092 1.535a16.92 16.92 0 01-4.638.659c-3.975 0-7.73-1.536-10.38-4.388-2.65-2.633-4.417-6.362-4.417-10.311 0-1.536.22-3.291.663-4.608.441-1.096.883-2.193 1.546-3.07-1.326 1.315-2.43 2.632-3.313 4.387-1.104 1.755-1.546 3.949-1.546 6.362zm3.975 10.311c-2.65-2.632-4.417-6.362-4.417-10.31 0-2.414.663-4.608 1.546-6.583 1.104-1.974 2.43-3.73 4.417-5.265l.883-.658-.662.877c-.883 1.317-1.767 2.633-2.209 4.169-.441 1.316-.662 2.852-.662 4.607 0 3.949 1.546 7.46 4.196 10.092 2.65 2.632 6.184 4.168 10.16 4.168 1.545 0 3.091-.22 4.637-.658 1.546-.439 2.871-1.316 4.196-2.194l.884-.658-.884.878a14.935 14.935 0 01-5.3 4.387c-1.988 1.097-4.196 1.536-6.626 1.536-3.975 0-7.509-1.755-10.159-4.388z" fill="#140848"/><path fill-rule="evenodd" clip-rule="evenodd" d="M14.797 12.066a14.916 14.916 0 00-2.871 8.776c0 7.898 6.626 14.48 14.576 14.48a15.15 15.15 0 008.834-2.853 14.916 14.916 0 002.871-8.775c0-7.898-6.625-14.48-14.576-14.48a15.15 15.15 0 00-8.834 2.852z" fill="#9DA1A2"/><path d="M15.018 12.286c-.884 1.097-1.767 2.413-2.209 3.949-.441 1.316-.662 2.852-.662 4.607 0 3.949 1.546 7.46 4.196 10.092 2.65 2.632 6.184 4.168 10.16 4.168 1.545 0 3.091-.22 4.637-.658 1.546-.439 2.871-1.316 3.975-2.194.884-1.316 1.546-2.632 2.209-3.949.442-1.316.663-2.852.663-4.607 0-3.949-1.546-7.46-4.197-10.092a14.183 14.183 0 00-4.656-3.102 14.26 14.26 0 00-5.503-1.066c-1.546 0-3.092.22-4.638.658-1.546.439-2.87 1.097-3.975 2.194zm-2.43 3.73c.442-1.536 1.326-2.852 2.21-4.169 1.324-.877 2.65-1.755 4.195-2.194a16.917 16.917 0 014.638-.658c3.976 0 7.73 1.536 10.38 4.388 2.65 2.633 4.417 6.362 4.417 10.311 0 1.536-.22 3.29-.662 4.607-.442 1.536-1.325 2.852-2.209 4.169-1.325.877-2.65 1.755-4.196 2.194a16.916 16.916 0 01-4.638.658c-3.975 0-7.73-1.536-10.38-4.388-2.65-2.633-4.417-6.362-4.417-10.311-.22-1.536 0-3.072.663-4.608z" fill="#140848"/><path fill-rule="evenodd" clip-rule="evenodd" d="M21.643 7.02c-4.196 1.536-7.509 4.827-8.834 8.995l8.835-8.995zm18.773 18.43l-9.055 8.995c4.196-1.316 7.509-4.827 9.055-8.995zm.22-8.337l-17.888 17.77c1.104.22 2.43.44 3.533.44l14.797-14.7c0-1.316-.22-2.413-.441-3.51zm-2.87-5.484L17.226 32.03c.663.658 1.546 1.097 2.43 1.535L39.312 14.04c-.221-.878-.884-1.755-1.546-2.413zm-4.417-3.73L13.693 27.424c.441.877 1.104 1.755 1.546 2.413L35.778 9.434c-.883-.439-1.546-1.097-2.43-1.536zm-6.626-1.536l-14.797 14.48c0 1.316.22 2.413.442 3.51l17.889-17.77c-1.105-.22-2.43-.22-3.534-.22z" fill="#F2CE14"/><path d="M20.98 7.46c-1.766.658-3.312 1.754-4.637 3.07-1.325 1.537-2.43 3.072-3.092 4.827l7.73-7.898zm-4.858 2.851c1.546-1.535 3.313-2.632 5.521-3.51l.663-.22-.442.659-9.055 8.995-.441.439.22-.659c.663-2.193 1.988-4.168 3.534-5.704zm23.852 15.796l-7.95 7.898c1.766-.658 3.312-1.755 4.637-3.071 1.326-1.316 2.43-2.852 3.313-4.827zm-8.834 8.337l9.055-8.995.442-.439-.221.659c-.663 2.193-1.988 3.949-3.534 5.484-1.546 1.536-3.533 2.852-5.521 3.51l-.663.22.442-.439zm9.497-17.112L23.189 34.663c.442.22.884.22 1.546.22.663 0 1.105.22 1.767.22l14.576-14.48c0-.659 0-1.097-.22-1.755 0-.659-.221-1.097-.221-1.536zm-18.11 17.331l17.889-17.77.22-.22v.22c.222.658.222 1.097.442 1.755 0 .658.221 1.317.221 1.755L26.502 35.322c-.662 0-1.325 0-1.767-.22-.662 0-1.325-.22-1.766-.438h-.442zm15.239-22.816L17.447 32.031c.442.22.663.439 1.105.658.441.22.662.439 1.104.658L39.09 14.041c-.221-.439-.442-.877-.663-1.097 0-.439-.441-.878-.662-1.097zm-20.54 19.964l20.54-20.403.22-.219.221.22c.221.438.663.877.884 1.096l.662 1.317v.219L19.877 33.786h-.221l-1.325-.658c-.442-.22-.884-.658-1.325-.878l.22-.439zM33.35 8.118L13.914 27.424c.22.438.441.877.662 1.097.221.438.442.658.663 1.097L35.557 9.434c-.442-.22-.662-.439-1.104-.658-.442-.22-.663-.44-1.104-.658zM13.472 27.424L33.128 7.679l1.325.658c.442.22.883.658 1.104.877l.221.22-.22.22-20.54 20.402-.22.22-.222-.22c-.22-.438-.662-.877-.883-1.097.22-.438 0-.877-.221-1.535zM26.723 6.362l-14.576 14.7c0 .658 0 1.096.22 1.755 0 .438.222 1.096.222 1.535L30.036 7.021c-.663-.22-1.104-.44-1.546-.44-.663 0-1.104-.219-1.767-.219zm-15.018 14.48L26.502 6.143c.663 0 1.325 0 1.767.22.663 0 1.325.219 1.767.438h.22l-.22.22-17.89 17.77-.22.22v-.22c-.22-.658-.22-1.097-.442-1.755.221-.878.221-1.536.221-2.194z" fill="#140848"/><path fill-rule="evenodd" clip-rule="evenodd" d="M38.87 10.53L10.38 38.833a9.804 9.804 0 002.43 1.755l27.827-27.643a9.745 9.745 0 00-1.767-2.413z" fill="#201547"/><path d="M38.87 10.75L10.6 38.832c.222.219.663.438 1.105.877.442.22.663.439 1.104.658l27.607-27.423c-.221-.439-.442-.658-.663-1.097-.441-.439-.662-.658-.883-1.097zM10.16 38.832l28.49-28.52.22-.22.22.22c.222.438.663.657.884 1.096.221.439.663.878.884 1.316v.22L12.809 40.806h-.22c-.442-.22-.884-.658-1.326-.877-.441-.22-.883-.659-1.104-.878v-.22z" fill="#140848"/><defs><filter id="ca" x="53.863" y="11.627" width="136.315" height="30.158" filterUnits="userSpaceOnUse" color-interpolation-filters="sRGB"><feFlood flood-opacity="0" result="BackgroundImageFix"/><feColorMatrix in="SourceAlpha" values="0 0 0 0 0 0 0 0 0 0 0 0 0 0 0 0 0 0 127 0" result="hardAlpha"/><feOffset dy="4"/><feGaussianBlur stdDeviation="2"/><feComposite in2="hardAlpha" operator="out"/><feColorMatrix values="0 0 0 0 0 0 0 0 0 0 0 0 0 0 0 0 0 0 0.25 0"/><feBlend in2="BackgroundImageFix" result="effect1_dropShadow_109_1226"/><feBlend in="SourceGraphic" in2="effect1_dropShadow_109_1226" result="shape"/></filter></defs></svg><svg fill="none" viewBox="0 0 197 43" id="footer--logo" xmlns="http://www.w3.org/2000/svg"><g filter="url(#da)"><path d="M62.722 11.627c-3.313 0-4.859 2.194-4.859 5.485v11.189c0 3.29 1.546 5.485 4.859 5.485 3.313 0 4.859-2.194 4.859-5.485v-2.633h-2.209v2.852c0 1.975-.883 3.072-2.65 3.072s-2.65-1.097-2.65-3.072V16.893c0-1.975.883-3.072 2.65-3.072s2.65 1.097 2.65 3.072v1.974h2.209v-1.974c0-3.072-1.546-5.266-4.859-5.266zM89.224 28.96l.884 4.388h2.429l-4.196-21.5h-3.534l-4.196 21.72h2.209l.883-4.389h5.521v-.219zm-2.87-14.48l2.428 12.506h-4.858l2.43-12.505zm25.176 18.868V14.04h3.976v-2.194h-10.38v2.194h3.975v19.525h2.429v-.22zm28.269-21.5h-2.429l-1.988 7.459-1.325 5.485-1.546-5.485-2.208-7.46h-2.43l5.08 16.016-.442 1.317c-.442 1.535-1.325 2.193-3.092 2.193v2.194c3.976.22 5.08-1.535 5.742-4.826l4.638-16.893zm13.251 0v21.72h2.43V25.01h2.208c3.534 0 5.08-1.755 5.08-5.265v-2.633c0-3.29-1.546-5.265-4.859-5.265h-4.859zm2.43 10.75V13.82h2.429c1.767 0 2.43.878 2.43 3.072v2.852c0 1.974-.884 2.852-2.651 2.852h-2.208zm28.269 1.097v9.653h2.429v-21.5h-2.429V21.5h-5.301v-9.653h-2.429v21.72h2.429v-9.654h5.301v-.22z" fill="#fff"/></g><path fill-rule="evenodd" clip-rule="evenodd" d="M9.055 23.694c0 8.117 6.626 14.48 14.576 14.48 4.859 0 9.055-2.194 11.705-5.705a15.15 15.15 0 01-8.834 2.852c-8.171 0-14.576-6.581-14.576-14.48 0-3.29 1.104-6.361 2.871-8.775-3.534 2.633-5.742 6.801-5.742 11.628z" fill="#201547"/><path d="M9.276 23.694c0 3.949 1.546 7.46 4.196 10.092 2.65 2.633 6.184 4.168 10.16 4.168 2.208 0 4.416-.438 6.404-1.535 1.546-.878 3.092-1.975 4.417-3.291-.884.658-1.988 1.097-3.092 1.535a16.92 16.92 0 01-4.638.659c-3.975 0-7.73-1.536-10.38-4.388-2.65-2.633-4.417-6.362-4.417-10.311 0-1.536.22-3.291.663-4.608.441-1.096.883-2.193 1.546-3.07-1.326 1.315-2.43 2.632-3.313 4.387-1.104 1.755-1.546 3.949-1.546 6.362zm3.975 10.311c-2.65-2.632-4.417-6.362-4.417-10.31 0-2.414.663-4.608 1.546-6.583 1.104-1.974 2.43-3.73 4.417-5.265l.883-.658-.662.877c-.883 1.317-1.767 2.633-2.209 4.169-.441 1.316-.662 2.852-.662 4.607 0 3.949 1.546 7.46 4.196 10.092 2.65 2.632 6.184 4.168 10.16 4.168 1.545 0 3.091-.22 4.637-.658 1.546-.439 2.871-1.316 4.196-2.194l.884-.658-.884.878a14.935 14.935 0 01-5.3 4.387c-1.988 1.097-4.196 1.536-6.626 1.536-3.975 0-7.509-1.755-10.159-4.388z" fill="#140848"/><path fill-rule="evenodd" clip-rule="evenodd" d="M14.797 12.066a14.916 14.916 0 00-2.871 8.776c0 7.898 6.626 14.48 14.576 14.48a15.15 15.15 0 008.834-2.853 14.916 14.916 0 002.871-8.775c0-7.898-6.625-14.48-14.576-14.48a15.15 15.15 0 00-8.834 2.852z" fill="#9DA1A2"/><path d="M15.018 12.286c-.884 1.097-1.767 2.413-2.209 3.949-.441 1.316-.662 2.852-.662 4.607 0 3.949 1.546 7.46 4.196 10.092 2.65 2.632 6.184 4.168 10.16 4.168 1.545 0 3.091-.22 4.637-.658 1.546-.439 2.871-1.316 3.975-2.194.884-1.316 1.546-2.632 2.209-3.949.442-1.316.663-2.852.663-4.607 0-3.949-1.546-7.46-4.197-10.092a14.183 14.183 0 00-4.656-3.102 14.26 14.26 0 00-5.503-1.066c-1.546 0-3.092.22-4.638.658-1.546.439-2.87 1.097-3.975 2.194zm-2.43 3.73c.442-1.536 1.326-2.852 2.21-4.169 1.324-.877 2.65-1.755 4.195-2.194a16.917 16.917 0 014.638-.658c3.976 0 7.73 1.536 10.38 4.388 2.65 2.633 4.417 6.362 4.417 10.311 0 1.536-.22 3.29-.662 4.607-.442 1.536-1.325 2.852-2.209 4.169-1.325.877-2.65 1.755-4.196 2.194a16.916 16.916 0 01-4.638.658c-3.975 0-7.73-1.536-10.38-4.388-2.65-2.633-4.417-6.362-4.417-10.311-.22-1.536 0-3.072.663-4.608z" fill="#140848"/><path fill-rule="evenodd" clip-rule="evenodd" d="M21.643 7.02c-4.196 1.536-7.509 4.827-8.834 8.995l8.835-8.995zm18.773 18.43l-9.055 8.995c4.196-1.316 7.509-4.827 9.055-8.995zm.22-8.337l-17.888 17.77c1.104.22 2.43.44 3.533.44l14.797-14.7c0-1.316-.22-2.413-.441-3.51zm-2.87-5.484L17.226 32.03c.663.658 1.546 1.097 2.43 1.535L39.312 14.04c-.221-.878-.884-1.755-1.546-2.413zm-4.417-3.73L13.693 27.424c.441.877 1.104 1.755 1.546 2.413L35.778 9.434c-.883-.439-1.546-1.097-2.43-1.536zm-6.626-1.536l-14.797 14.48c0 1.316.22 2.413.442 3.51l17.889-17.77c-1.105-.22-2.43-.22-3.534-.22z" fill="#F2CE14"/><path d="M20.98 7.46c-1.766.658-3.312 1.754-4.637 3.07-1.325 1.537-2.43 3.072-3.092 4.827l7.73-7.898zm-4.858 2.851c1.546-1.535 3.313-2.632 5.521-3.51l.663-.22-.442.659-9.055 8.995-.441.439.22-.659c.663-2.193 1.988-4.168 3.534-5.704zm23.852 15.796l-7.95 7.898c1.766-.658 3.312-1.755 4.637-3.071 1.326-1.316 2.43-2.852 3.313-4.827zm-8.834 8.337l9.055-8.995.442-.439-.221.659c-.663 2.193-1.988 3.949-3.534 5.484-1.546 1.536-3.533 2.852-5.521 3.51l-.663.22.442-.439zm9.497-17.112L23.189 34.663c.442.22.884.22 1.546.22.663 0 1.105.22 1.767.22l14.576-14.48c0-.659 0-1.097-.22-1.755 0-.659-.221-1.097-.221-1.536zm-18.11 17.331l17.889-17.77.22-.22v.22c.222.658.222 1.097.442 1.755 0 .658.221 1.317.221 1.755L26.502 35.322c-.662 0-1.325 0-1.767-.22-.662 0-1.325-.22-1.766-.438h-.442zm15.239-22.816L17.447 32.031c.442.22.663.439 1.105.658.441.22.662.439 1.104.658L39.09 14.041c-.221-.439-.442-.877-.663-1.097 0-.439-.441-.878-.662-1.097zm-20.54 19.964l20.54-20.403.22-.219.221.22c.221.438.663.877.884 1.096l.662 1.317v.219L19.877 33.786h-.221l-1.325-.658c-.442-.22-.884-.658-1.325-.878l.22-.439zM33.35 8.118L13.914 27.424c.22.438.441.877.662 1.097.221.438.442.658.663 1.097L35.557 9.434c-.442-.22-.662-.439-1.104-.658-.442-.22-.663-.44-1.104-.658zM13.472 27.424L33.128 7.679l1.325.658c.442.22.883.658 1.104.877l.221.22-.22.22-20.54 20.402-.22.22-.222-.22c-.22-.438-.662-.877-.883-1.097.22-.438 0-.877-.221-1.535zM26.723 6.362l-14.576 14.7c0 .658 0 1.096.22 1.755 0 .438.222 1.096.222 1.535L30.036 7.021c-.663-.22-1.104-.44-1.546-.44-.663 0-1.104-.219-1.767-.219zm-15.018 14.48L26.502 6.143c.663 0 1.325 0 1.767.22.663 0 1.325.219 1.767.438h.22l-.22.22-17.89 17.77-.22.22v-.22c-.22-.658-.22-1.097-.442-1.755.221-.878.221-1.536.221-2.194z" fill="#140848"/><path fill-rule="evenodd" clip-rule="evenodd" d="M38.87 10.53L10.38 38.833a9.804 9.804 0 002.43 1.755l27.827-27.643a9.745 9.745 0 00-1.767-2.413z" fill="#201547"/><path d="M38.87 10.75L10.6 38.832c.222.219.663.438 1.105.877.442.22.663.439 1.104.658l27.607-27.423c-.221-.439-.442-.658-.663-1.097-.441-.439-.662-.658-.883-1.097zM10.16 38.832l28.49-28.52.22-.22.22.22c.222.438.663.657.884 1.096.221.439.663.878.884 1.316v.22L12.809 40.806h-.22c-.442-.22-.884-.658-1.326-.877-.441-.22-.883-.659-1.104-.878v-.22z" fill="#140848"/><defs><filter id="da" x="53.863" y="11.627" width="136.315" height="30.158" filterUnits="userSpaceOnUse" color-interpolation-filters="sRGB"><feFlood flood-opacity="0" result="BackgroundImageFix"/><feColorMatrix in="SourceAlpha" values="0 0 0 0 0 0 0 0 0 0 0 0 0 0 0 0 0 0 127 0" result="hardAlpha"/><feOffset dy="4"/><feGaussianBlur stdDeviation="2"/><feComposite in2="hardAlpha" operator="out"/><feColorMatrix values="0 0 0 0 0 0 0 0 0 0 0 0 0 0 0 0 0 0 0.25 0"/><feBlend in2="BackgroundImageFix" result="effect1_dropShadow_109_1226"/><feBlend in="SourceGraphic" in2="effect1_dropShadow_109_1226" result="shape"/></filter></defs></svg><svg fill="none" viewBox="0 0 24 24" id="footer--phone" xmlns="http://www.w3.org/2000/svg"><path d="M6.68 3.32l.613-.613a1 1 0 011.414 0l2.586 2.586a1 1 0 010 1.414L9.5 8.5a.982.982 0 00-.183 1.133 11.293 11.293 0 005.05 5.05.982.982 0 001.133-.184l1.793-1.792a1 1 0 011.414 0l2.586 2.586a1 1 0 010 1.414l-.613.613a6 6 0 01-7.843.558l-1.208-.907a22.996 22.996 0 01-4.6-4.6l-.907-1.208A6 6 0 016.68 3.32z" fill="#fff"/></svg><svg fill="none" viewBox="0 0 24 24" id="footer--phone" xmlns="http://www.w3.org/2000/svg"><path d="M6.68 3.32l.613-.613a1 1 0 011.414 0l2.586 2.586a1 1 0 010 1.414L9.5 8.5a.982.982 0 00-.183 1.133 11.293 11.293 0 005.05 5.05.982.982 0 001.133-.184l1.793-1.792a1 1 0 011.414 0l2.586 2.586a1 1 0 010 1.414l-.613.613a6 6 0 01-7.843.558l-1.208-.907a22.996 22.996 0 01-4.6-4.6l-.907-1.208A6 6 0 016.68 3.32z" fill="#fff"/></svg><svg fill="none" viewBox="0 0 14 14" id="header--arrow-down-blue-dark" xmlns="http://www.w3.org/2000/svg"><path d="M10.5 5.25L7 8.75l-3.5-3.5" stroke="#140848"/></svg><svg fill="none" viewBox="0 0 14 14" id="header--arrow-down-blue-dark" xmlns="http://www.w3.org/2000/svg"><path d="M10.5 5.25L7 8.75l-3.5-3.5" stroke="#140848"/></svg><svg fill="none" viewBox="0 0 24 24" id="header--email" xmlns="http://www.w3.org/2000/svg"><path fill-rule="evenodd" clip-rule="evenodd" d="M3.879 5.879C3 6.757 3 8.172 3 11v2c0 2.828 0 4.243.879 5.121C4.757 19 6.172 19 9 19h6c2.828 0 4.243 0 5.121-.879C21 17.243 21 15.828 21 13v-2c0-2.828 0-4.243-.879-5.121C19.243 5 17.828 5 15 5H9c-2.828 0-4.243 0-5.121.879zm2.676 2.289a1 1 0 00-1.11 1.664l5.446 3.63a2 2 0 002.218 0l5.446-3.63a1 1 0 00-1.11-1.664L12 11.798l-5.445-3.63z" fill="#140848"/></svg><svg fill="none" viewBox="0 0 24 24" id="header--email" xmlns="http://www.w3.org/2000/svg"><path fill-rule="evenodd" clip-rule="evenodd" d="M3.879 5.879C3 6.757 3 8.172 3 11v2c0 2.828 0 4.243.879 5.121C4.757 19 6.172 19 9 19h6c2.828 0 4.243 0 5.121-.879C21 17.243 21 15.828 21 13v-2c0-2.828 0-4.243-.879-5.121C19.243 5 17.828 5 15 5H9c-2.828 0-4.243 0-5.121.879zm2.676 2.289a1 1 0 00-1.11 1.664l5.446 3.63a2 2 0 002.218 0l5.446-3.63a1 1 0 00-1.11-1.664L12 11.798l-5.445-3.63z" fill="#140848"/></svg><svg fill="none" viewBox="0 0 24 24" id="header--geo" xmlns="http://www.w3.org/2000/svg"><path fill-rule="evenodd" clip-rule="evenodd" d="M12.398 19.804C13.881 19.034 19 16.016 19 11a7 7 0 10-14 0c0 5.016 5.119 8.035 6.602 8.804a.855.855 0 00.796 0zM12 14a3 3 0 100-6 3 3 0 000 6z" fill="#140848"/></svg><svg fill="none" viewBox="0 0 24 24" id="header--geo" xmlns="http://www.w3.org/2000/svg"><path fill-rule="evenodd" clip-rule="evenodd" d="M12.398 19.804C13.881 19.034 19 16.016 19 11a7 7 0 10-14 0c0 5.016 5.119 8.035 6.602 8.804a.855.855 0 00.796 0zM12 14a3 3 0 100-6 3 3 0 000 6z" fill="#140848"/></svg><svg fill="none" viewBox="0 0 24 24" id="header--phone" xmlns="http://www.w3.org/2000/svg"><path d="M6.68 3.32l.613-.613a1 1 0 011.414 0l2.586 2.586a1 1 0 010 1.414L9.5 8.5a.982.982 0 00-.183 1.133 11.293 11.293 0 005.05 5.05.982.982 0 001.133-.184l1.793-1.792a1 1 0 011.414 0l2.586 2.586a1 1 0 010 1.414l-.613.613a6 6 0 01-7.843.558l-1.208-.907a22.996 22.996 0 01-4.6-4.6l-.907-1.208A6 6 0 016.68 3.32z" fill="#140848"/></svg><svg fill="none" viewBox="0 0 24 24" id="header--phone" xmlns="http://www.w3.org/2000/svg"><path d="M6.68 3.32l.613-.613a1 1 0 011.414 0l2.586 2.586a1 1 0 010 1.414L9.5 8.5a.982.982 0 00-.183 1.133 11.293 11.293 0 005.05 5.05.982.982 0 001.133-.184l1.793-1.792a1 1 0 011.414 0l2.586 2.586a1 1 0 010 1.414l-.613.613a6 6 0 01-7.843.558l-1.208-.907a22.996 22.996 0 01-4.6-4.6l-.907-1.208A6 6 0 016.68 3.32z" fill="#140848"/></svg><svg fill="none" viewBox="0 0 12 12" id="index--indexMain--arrow-link-black" xmlns="http://www.w3.org/2000/svg"><path d="M1 11L11 1M1 1h10v10" stroke="#050505" stroke-width="2" stroke-linecap="round" stroke-linejoin="round"/></svg><svg fill="none" viewBox="0 0 12 12" id="index--indexMain--arrow-link-black" xmlns="http://www.w3.org/2000/svg"><path d="M1 11L11 1M1 1h10v10" stroke="#050505" stroke-width="2" stroke-linecap="round" stroke-linejoin="round"/></svg><svg fill="none" viewBox="0 0 55 24" id="index--indexMain--arrow-next-slider" xmlns="http://www.w3.org/2000/svg"><path d="M38.958 12H6.875" stroke="#F2CD00" stroke-width="2" stroke-linecap="round" stroke-linejoin="round"/><path d="M49.65 11.761L35.414 7.324a.8.8 0 00-1.038.763v7.826a.8.8 0 001.038.764l14.238-4.438a.25.25 0 000-.478z" fill="#F2CD00"/></svg><svg fill="none" viewBox="0 0 55 24" id="index--indexMain--arrow-next-slider" xmlns="http://www.w3.org/2000/svg"><path d="M38.958 12H6.875" stroke="#F2CD00" stroke-width="2" stroke-linecap="round" stroke-linejoin="round"/><path d="M49.65 11.761L35.414 7.324a.8.8 0 00-1.038.763v7.826a.8.8 0 001.038.764l14.238-4.438a.25.25 0 000-.478z" fill="#F2CD00"/></svg><svg fill="none" viewBox="0 0 55 24" id="index--indexMain--arrow-prev-slider" xmlns="http://www.w3.org/2000/svg"><path d="M16.042 12h32.083" stroke="#7E7E7E" stroke-width="2" stroke-linecap="round" stroke-linejoin="round"/><path d="M5.35 11.761l14.237-4.437a.8.8 0 011.038.763v7.826a.8.8 0 01-1.038.764L5.349 12.239a.25.25 0 010-.478z" fill="#7E7E7E"/></svg><svg fill="none" viewBox="0 0 55 24" id="index--indexMain--arrow-prev-slider" xmlns="http://www.w3.org/2000/svg"><path d="M16.042 12h32.083" stroke="#7E7E7E" stroke-width="2" stroke-linecap="round" stroke-linejoin="round"/><path d="M5.35 11.761l14.237-4.437a.8.8 0 011.038.763v7.826a.8.8 0 01-1.038.764L5.349 12.239a.25.25 0 010-.478z" fill="#7E7E7E"/></svg><svg fill="none" viewBox="0 0 40 40" id="index--indexMain--play" xmlns="http://www.w3.org/2000/svg"><path fill-rule="evenodd" clip-rule="evenodd" d="M0 20C0 8.954 8.954 0 20 0s20 8.954 20 20-8.954 20-20 20S0 31.046 0 20zm16.913 7.31l10-6.25a1.251 1.251 0 000-2.12l-10-6.25A1.25 1.25 0 0015 13.75v12.5a1.25 1.25 0 001.913 1.06z" fill="#F2CD00"/></svg><svg fill="none" viewBox="0 0 40 40" id="index--indexMain--play" xmlns="http://www.w3.org/2000/svg"><path fill-rule="evenodd" clip-rule="evenodd" d="M0 20C0 8.954 8.954 0 20 0s20 8.954 20 20-8.954 20-20 20S0 31.046 0 20zm16.913 7.31l10-6.25a1.251 1.251 0 000-2.12l-10-6.25A1.25 1.25 0 0015 13.75v12.5a1.25 1.25 0 001.913 1.06z" fill="#F2CD00"/></svg><svg fill="none" viewBox="0 0 176 39" id="logo" xmlns="http://www.w3.org/2000/svg"><path d="M56.036 10.486c-2.96 0-4.34 1.979-4.34 4.947v10.09c0 2.968 1.38 4.947 4.34 4.947s4.34-1.979 4.34-4.947V23.15h-1.972v2.572c0 1.78-.79 2.77-2.368 2.77-1.579 0-2.368-.99-2.368-2.77V15.235c0-1.78.79-2.77 2.368-2.77 1.578 0 2.368.99 2.368 2.77v1.78h1.973v-1.78c0-2.77-1.382-4.749-4.341-4.749zm23.677 15.63l.79 3.958h2.17l-3.75-19.39h-3.156l-3.75 19.588h1.974l.79-3.957h4.932v-.198zm-2.565-13.058l2.17 11.278h-4.34l2.17-11.278zm22.493 17.016V12.663h3.552v-1.979h-9.274v1.979h3.552v17.609h2.17v-.198zm25.256-19.39h-2.171l-1.775 6.727-1.184 4.947-1.381-4.947-1.973-6.727h-2.171l4.538 14.444-.394 1.187c-.395 1.385-1.184 1.978-2.763 1.978v1.979c3.552.198 4.538-1.385 5.13-4.353l4.144-15.235zm11.838 0v19.588h2.171v-7.716h1.973c3.157 0 4.538-1.583 4.538-4.749v-2.374c0-2.968-1.381-4.749-4.341-4.749h-4.341zm2.171 9.695v-7.914h2.17c1.579 0 2.171.791 2.171 2.77v2.572c0 1.78-.79 2.572-2.368 2.572h-1.973zm25.255.99v8.705h2.171v-19.39h-2.171v8.706h-4.735v-8.706h-2.17v19.588h2.17v-8.706h4.735v-.198z" fill="#140848"/><path fill-rule="evenodd" clip-rule="evenodd" d="M8.09 21.368c0 7.32 5.919 13.059 13.022 13.059 4.34 0 8.09-1.979 10.458-5.145a13.45 13.45 0 01-7.893 2.573c-7.3 0-13.022-5.936-13.022-13.059 0-2.968.986-5.738 2.565-7.914-3.157 2.374-5.13 6.133-5.13 10.486z" fill="#201547"/><path d="M8.287 21.369c0 3.561 1.381 6.727 3.749 9.1 2.368 2.375 5.525 3.76 9.076 3.76 1.973 0 3.946-.395 5.722-1.385 1.381-.791 2.762-1.78 3.946-2.968-.789.594-1.776.99-2.762 1.385a14.979 14.979 0 01-4.143.594c-3.552 0-6.906-1.385-9.274-3.957-2.368-2.375-3.946-5.738-3.946-9.3 0-1.384.197-2.967.592-4.154.394-.99.789-1.979 1.38-2.77-1.183 1.187-2.17 2.374-2.959 3.957-.986 1.583-1.381 3.561-1.381 5.738zm3.552 9.299c-2.368-2.374-3.947-5.738-3.947-9.3 0-2.176.592-4.154 1.382-5.935.986-1.78 2.17-3.364 3.946-4.749l.789-.593-.592.791c-.79 1.187-1.578 2.375-1.973 3.76-.395 1.187-.592 2.572-.592 4.155 0 3.56 1.381 6.726 3.749 9.1 2.368 2.375 5.525 3.76 9.076 3.76 1.381 0 2.762-.198 4.144-.593 1.38-.396 2.565-1.188 3.748-1.98l.79-.593-.79.792a13.373 13.373 0 01-4.735 3.957c-1.776.99-3.749 1.385-5.92 1.385-3.55 0-6.708-1.583-9.075-3.957z" fill="#fff"/><path fill-rule="evenodd" clip-rule="evenodd" d="M13.22 10.882a13.538 13.538 0 00-2.565 7.914c0 7.123 5.919 13.059 13.022 13.059 2.96 0 5.722-.99 7.893-2.572a13.537 13.537 0 002.565-7.915c0-7.122-5.92-13.058-13.023-13.058-2.96 0-5.722.99-7.892 2.572z" fill="#9DA1A2"/><path d="M13.417 11.08c-.79.99-1.579 2.177-1.973 3.562-.395 1.187-.592 2.572-.592 4.155 0 3.56 1.381 6.727 3.749 9.1 2.368 2.375 5.524 3.76 9.076 3.76 1.381 0 2.762-.198 4.144-.593 1.38-.396 2.565-1.188 3.551-1.979.79-1.187 1.381-2.374 1.973-3.561.395-1.188.592-2.573.592-4.155 0-3.562-1.381-6.727-3.749-9.102a12.664 12.664 0 00-9.076-3.759c-1.381 0-2.762.198-4.143.594-1.382.395-2.565.989-3.552 1.978zm-2.17 3.364c.394-1.385 1.184-2.572 1.973-3.76 1.184-.791 2.367-1.582 3.749-1.978a14.981 14.981 0 014.143-.594c3.552 0 6.906 1.385 9.274 3.957 2.367 2.375 3.946 5.738 3.946 9.3 0 1.385-.197 2.967-.592 4.155-.395 1.385-1.184 2.572-1.973 3.759-1.184.791-2.368 1.583-3.75 1.978a14.982 14.982 0 01-4.143.594c-3.551 0-6.905-1.385-9.273-3.957-2.368-2.374-3.946-5.738-3.946-9.3-.198-1.384 0-2.77.592-4.154z" fill="#fff"/><path fill-rule="evenodd" clip-rule="evenodd" d="M19.336 6.331c-3.748 1.385-6.708 4.353-7.892 8.112l7.892-8.112zm16.772 16.62l-8.09 8.112c3.749-1.187 6.709-4.352 8.09-8.112zm.197-7.518L20.323 31.459c.986.198 2.17.396 3.157.396L36.7 18.598c0-1.187-.198-2.176-.395-3.165zm-2.565-4.947l-18.35 18.4c.592.594 1.381.99 2.17 1.386l17.561-17.61c-.197-.79-.79-1.582-1.381-2.176zm-3.946-3.363l-17.56 17.609c.394.791.986 1.583 1.38 2.176l18.35-18.4c-.79-.396-1.381-.99-2.17-1.385zm-5.92-1.385l-13.22 13.058c0 1.187.198 2.177.395 3.166L27.031 5.936c-.986-.198-2.17-.198-3.156-.198z" fill="#F2CE14"/><path d="M18.744 6.727c-1.578.594-2.96 1.583-4.143 2.77-1.184 1.385-2.17 2.77-2.763 4.353l6.906-7.123zM14.404 9.3c1.38-1.385 2.96-2.374 4.932-3.165l.592-.198-.394.593-8.09 8.112-.395.396.198-.594c.591-1.978 1.775-3.759 3.157-5.144zm21.309 14.246l-7.103 7.123c1.578-.594 2.96-1.583 4.143-2.77 1.184-1.187 2.17-2.572 2.96-4.353zm-7.892 7.518l8.09-8.112.394-.395-.197.593c-.592 1.979-1.776 3.562-3.157 4.947-1.381 1.384-3.157 2.572-4.933 3.165l-.592.198.395-.396zm8.484-15.432L20.718 31.26c.394.198.789.198 1.38.198.593 0 .987.198 1.58.198l13.021-13.058c0-.594 0-.99-.197-1.583 0-.594-.197-.99-.197-1.385zm-16.18 15.63l15.983-16.026.197-.198v.198c.197.594.197.99.395 1.583 0 .593.197 1.187.197 1.583l-13.22 13.454c-.592 0-1.184 0-1.578-.198-.592 0-1.184-.198-1.579-.396h-.395zM33.74 10.684L15.587 28.887c.395.198.592.396.987.593.395.198.592.396.986.594l17.364-17.411c-.198-.396-.395-.792-.592-.99 0-.395-.395-.79-.592-.989zM15.39 28.69l18.35-18.4.197-.198.198.198c.197.395.591.791.789.989l.592 1.187v.198L17.758 30.47h-.197l-1.184-.594c-.395-.198-.79-.593-1.184-.791l.197-.396zM29.794 7.321L12.43 24.732c.197.396.394.791.591.99.198.395.395.593.592.989L31.767 8.508c-.395-.198-.592-.396-.987-.594-.394-.198-.592-.395-.986-.593zM12.036 24.732l17.56-17.807 1.184.594c.395.197.79.593.987.791l.197.198-.197.198-18.35 18.4-.197.198-.198-.198c-.197-.395-.591-.791-.789-.989.197-.396 0-.791-.197-1.385zM23.874 5.738L10.852 18.994c0 .594 0 .99.197 1.583 0 .396.198.99.198 1.385l15.587-15.63c-.592-.198-.986-.396-1.381-.396-.592 0-.987-.198-1.579-.198zM10.457 18.796L23.677 5.54c.592 0 1.184 0 1.579.198.591 0 1.183.198 1.578.396h.197l-.197.197-15.982 16.027-.197.198v-.198c-.198-.594-.198-.99-.395-1.583.197-.791.197-1.385.197-1.979z" fill="#fff"/><path fill-rule="evenodd" clip-rule="evenodd" d="M34.727 9.497L9.274 35.02a8.76 8.76 0 002.17 1.583l24.861-24.93a8.787 8.787 0 00-1.578-2.176z" fill="#201547"/><path d="M34.727 9.695L9.47 35.021c.197.197.592.395.986.791.395.198.592.396.987.594l24.664-24.732c-.198-.396-.395-.594-.592-.99-.395-.395-.592-.593-.79-.989zM9.077 35.021L34.528 9.299l.197-.197.198.197c.197.396.592.594.789.99.197.395.592.791.79 1.187v.198L11.442 36.8h-.196c-.395-.198-.79-.593-1.184-.791-.395-.198-.79-.594-.987-.791v-.198z" fill="#fff"/></svg><svg fill="none" viewBox="0 0 176 39" id="logo" xmlns="http://www.w3.org/2000/svg"><path d="M56.036 10.486c-2.96 0-4.34 1.979-4.34 4.947v10.09c0 2.968 1.38 4.947 4.34 4.947s4.34-1.979 4.34-4.947V23.15h-1.972v2.572c0 1.78-.79 2.77-2.368 2.77-1.579 0-2.368-.99-2.368-2.77V15.235c0-1.78.79-2.77 2.368-2.77 1.578 0 2.368.99 2.368 2.77v1.78h1.973v-1.78c0-2.77-1.382-4.749-4.341-4.749zm23.677 15.63l.79 3.958h2.17l-3.75-19.39h-3.156l-3.75 19.588h1.974l.79-3.957h4.932v-.198zm-2.565-13.058l2.17 11.278h-4.34l2.17-11.278zm22.493 17.016V12.663h3.552v-1.979h-9.274v1.979h3.552v17.609h2.17v-.198zm25.256-19.39h-2.171l-1.775 6.727-1.184 4.947-1.381-4.947-1.973-6.727h-2.171l4.538 14.444-.394 1.187c-.395 1.385-1.184 1.978-2.763 1.978v1.979c3.552.198 4.538-1.385 5.13-4.353l4.144-15.235zm11.838 0v19.588h2.171v-7.716h1.973c3.157 0 4.538-1.583 4.538-4.749v-2.374c0-2.968-1.381-4.749-4.341-4.749h-4.341zm2.171 9.695v-7.914h2.17c1.579 0 2.171.791 2.171 2.77v2.572c0 1.78-.79 2.572-2.368 2.572h-1.973zm25.255.99v8.705h2.171v-19.39h-2.171v8.706h-4.735v-8.706h-2.17v19.588h2.17v-8.706h4.735v-.198z" fill="#140848"/><path fill-rule="evenodd" clip-rule="evenodd" d="M8.09 21.368c0 7.32 5.919 13.059 13.022 13.059 4.34 0 8.09-1.979 10.458-5.145a13.45 13.45 0 01-7.893 2.573c-7.3 0-13.022-5.936-13.022-13.059 0-2.968.986-5.738 2.565-7.914-3.157 2.374-5.13 6.133-5.13 10.486z" fill="#201547"/><path d="M8.287 21.369c0 3.561 1.381 6.727 3.749 9.1 2.368 2.375 5.525 3.76 9.076 3.76 1.973 0 3.946-.395 5.722-1.385 1.381-.791 2.762-1.78 3.946-2.968-.789.594-1.776.99-2.762 1.385a14.979 14.979 0 01-4.143.594c-3.552 0-6.906-1.385-9.274-3.957-2.368-2.375-3.946-5.738-3.946-9.3 0-1.384.197-2.967.592-4.154.394-.99.789-1.979 1.38-2.77-1.183 1.187-2.17 2.374-2.959 3.957-.986 1.583-1.381 3.561-1.381 5.738zm3.552 9.299c-2.368-2.374-3.947-5.738-3.947-9.3 0-2.176.592-4.154 1.382-5.935.986-1.78 2.17-3.364 3.946-4.749l.789-.593-.592.791c-.79 1.187-1.578 2.375-1.973 3.76-.395 1.187-.592 2.572-.592 4.155 0 3.56 1.381 6.726 3.749 9.1 2.368 2.375 5.525 3.76 9.076 3.76 1.381 0 2.762-.198 4.144-.593 1.38-.396 2.565-1.188 3.748-1.98l.79-.593-.79.792a13.373 13.373 0 01-4.735 3.957c-1.776.99-3.749 1.385-5.92 1.385-3.55 0-6.708-1.583-9.075-3.957z" fill="#fff"/><path fill-rule="evenodd" clip-rule="evenodd" d="M13.22 10.882a13.538 13.538 0 00-2.565 7.914c0 7.123 5.919 13.059 13.022 13.059 2.96 0 5.722-.99 7.893-2.572a13.537 13.537 0 002.565-7.915c0-7.122-5.92-13.058-13.023-13.058-2.96 0-5.722.99-7.892 2.572z" fill="#9DA1A2"/><path d="M13.417 11.08c-.79.99-1.579 2.177-1.973 3.562-.395 1.187-.592 2.572-.592 4.155 0 3.56 1.381 6.727 3.749 9.1 2.368 2.375 5.524 3.76 9.076 3.76 1.381 0 2.762-.198 4.144-.593 1.38-.396 2.565-1.188 3.551-1.979.79-1.187 1.381-2.374 1.973-3.561.395-1.188.592-2.573.592-4.155 0-3.562-1.381-6.727-3.749-9.102a12.664 12.664 0 00-9.076-3.759c-1.381 0-2.762.198-4.143.594-1.382.395-2.565.989-3.552 1.978zm-2.17 3.364c.394-1.385 1.184-2.572 1.973-3.76 1.184-.791 2.367-1.582 3.749-1.978a14.981 14.981 0 014.143-.594c3.552 0 6.906 1.385 9.274 3.957 2.367 2.375 3.946 5.738 3.946 9.3 0 1.385-.197 2.967-.592 4.155-.395 1.385-1.184 2.572-1.973 3.759-1.184.791-2.368 1.583-3.75 1.978a14.982 14.982 0 01-4.143.594c-3.551 0-6.905-1.385-9.273-3.957-2.368-2.374-3.946-5.738-3.946-9.3-.198-1.384 0-2.77.592-4.154z" fill="#fff"/><path fill-rule="evenodd" clip-rule="evenodd" d="M19.336 6.331c-3.748 1.385-6.708 4.353-7.892 8.112l7.892-8.112zm16.772 16.62l-8.09 8.112c3.749-1.187 6.709-4.352 8.09-8.112zm.197-7.518L20.323 31.459c.986.198 2.17.396 3.157.396L36.7 18.598c0-1.187-.198-2.176-.395-3.165zm-2.565-4.947l-18.35 18.4c.592.594 1.381.99 2.17 1.386l17.561-17.61c-.197-.79-.79-1.582-1.381-2.176zm-3.946-3.363l-17.56 17.609c.394.791.986 1.583 1.38 2.176l18.35-18.4c-.79-.396-1.381-.99-2.17-1.385zm-5.92-1.385l-13.22 13.058c0 1.187.198 2.177.395 3.166L27.031 5.936c-.986-.198-2.17-.198-3.156-.198z" fill="#F2CE14"/><path d="M18.744 6.727c-1.578.594-2.96 1.583-4.143 2.77-1.184 1.385-2.17 2.77-2.763 4.353l6.906-7.123zM14.404 9.3c1.38-1.385 2.96-2.374 4.932-3.165l.592-.198-.394.593-8.09 8.112-.395.396.198-.594c.591-1.978 1.775-3.759 3.157-5.144zm21.309 14.246l-7.103 7.123c1.578-.594 2.96-1.583 4.143-2.77 1.184-1.187 2.17-2.572 2.96-4.353zm-7.892 7.518l8.09-8.112.394-.395-.197.593c-.592 1.979-1.776 3.562-3.157 4.947-1.381 1.384-3.157 2.572-4.933 3.165l-.592.198.395-.396zm8.484-15.432L20.718 31.26c.394.198.789.198 1.38.198.593 0 .987.198 1.58.198l13.021-13.058c0-.594 0-.99-.197-1.583 0-.594-.197-.99-.197-1.385zm-16.18 15.63l15.983-16.026.197-.198v.198c.197.594.197.99.395 1.583 0 .593.197 1.187.197 1.583l-13.22 13.454c-.592 0-1.184 0-1.578-.198-.592 0-1.184-.198-1.579-.396h-.395zM33.74 10.684L15.587 28.887c.395.198.592.396.987.593.395.198.592.396.986.594l17.364-17.411c-.198-.396-.395-.792-.592-.99 0-.395-.395-.79-.592-.989zM15.39 28.69l18.35-18.4.197-.198.198.198c.197.395.591.791.789.989l.592 1.187v.198L17.758 30.47h-.197l-1.184-.594c-.395-.198-.79-.593-1.184-.791l.197-.396zM29.794 7.321L12.43 24.732c.197.396.394.791.591.99.198.395.395.593.592.989L31.767 8.508c-.395-.198-.592-.396-.987-.594-.394-.198-.592-.395-.986-.593zM12.036 24.732l17.56-17.807 1.184.594c.395.197.79.593.987.791l.197.198-.197.198-18.35 18.4-.197.198-.198-.198c-.197-.395-.591-.791-.789-.989.197-.396 0-.791-.197-1.385zM23.874 5.738L10.852 18.994c0 .594 0 .99.197 1.583 0 .396.198.99.198 1.385l15.587-15.63c-.592-.198-.986-.396-1.381-.396-.592 0-.987-.198-1.579-.198zM10.457 18.796L23.677 5.54c.592 0 1.184 0 1.579.198.591 0 1.183.198 1.578.396h.197l-.197.197-15.982 16.027-.197.198v-.198c-.198-.594-.198-.99-.395-1.583.197-.791.197-1.385.197-1.979z" fill="#fff"/><path fill-rule="evenodd" clip-rule="evenodd" d="M34.727 9.497L9.274 35.02a8.76 8.76 0 002.17 1.583l24.861-24.93a8.787 8.787 0 00-1.578-2.176z" fill="#201547"/><path d="M34.727 9.695L9.47 35.021c.197.197.592.395.986.791.395.198.592.396.987.594l24.664-24.732c-.198-.396-.395-.594-.592-.99-.395-.395-.592-.593-.79-.989zM9.077 35.021L34.528 9.299l.197-.197.198.197c.197.396.592.594.789.99.197.395.592.791.79 1.187v.198L11.442 36.8h-.196c-.395-.198-.79-.593-1.184-.791-.395-.198-.79-.594-.987-.791v-.198z" fill="#fff"/></svg></svg>