<?xml version="1.0" encoding="utf-8"?><svg viewBox="0 0 176 39" xmlns="http://www.w3.org/2000/svg" xmlns:xlink="http://www.w3.org/1999/xlink"><style>:root>svg{display:none}:root>svg:target{display:block}</style><svg fill="none" viewBox="0 0 14 12" id="footer--arrow-link-black" xmlns="http://www.w3.org/2000/svg"><path d="M1 11L12.704 1M1 1h11.704v10" stroke="#050505" stroke-width="2" stroke-linecap="round" stroke-linejoin="round"/></svg><svg fill="none" viewBox="0 0 14 12" id="footer--arrow-link-black" xmlns="http://www.w3.org/2000/svg"><path d="M1 11L12.704 1M1 1h11.704v10" stroke="#050505" stroke-width="2" stroke-linecap="round" stroke-linejoin="round"/></svg><svg fill="none" viewBox="0 0 24 24" id="footer--phone" xmlns="http://www.w3.org/2000/svg"><path d="M6.68 3.32l.613-.613a1 1 0 011.414 0l2.586 2.586a1 1 0 010 1.414L9.5 8.5a.982.982 0 00-.183 1.133 11.293 11.293 0 005.05 5.05.982.982 0 001.133-.184l1.793-1.792a1 1 0 011.414 0l2.586 2.586a1 1 0 010 1.414l-.613.613a6 6 0 01-7.843.558l-1.208-.907a22.996 22.996 0 01-4.6-4.6l-.907-1.208A6 6 0 016.68 3.32z" fill="#fff"/></svg><svg fill="none" viewBox="0 0 24 24" id="footer--phone" xmlns="http://www.w3.org/2000/svg"><path d="M6.68 3.32l.613-.613a1 1 0 011.414 0l2.586 2.586a1 1 0 010 1.414L9.5 8.5a.982.982 0 00-.183 1.133 11.293 11.293 0 005.05 5.05.982.982 0 001.133-.184l1.793-1.792a1 1 0 011.414 0l2.586 2.586a1 1 0 010 1.414l-.613.613a6 6 0 01-7.843.558l-1.208-.907a22.996 22.996 0 01-4.6-4.6l-.907-1.208A6 6 0 016.68 3.32z" fill="#fff"/></svg><svg fill="none" viewBox="0 0 14 14" id="header--arrow-down-blue-dark" xmlns="http://www.w3.org/2000/svg"><path d="M10.5 5.25L7 8.75l-3.5-3.5" stroke="#140848"/></svg><svg fill="none" viewBox="0 0 14 14" id="header--arrow-down-blue-dark" xmlns="http://www.w3.org/2000/svg"><path d="M10.5 5.25L7 8.75l-3.5-3.5" stroke="#140848"/></svg><svg fill="none" viewBox="0 0 24 24" id="header--email" xmlns="http://www.w3.org/2000/svg"><path fill-rule="evenodd" clip-rule="evenodd" d="M3.879 5.879C3 6.757 3 8.172 3 11v2c0 2.828 0 4.243.879 5.121C4.757 19 6.172 19 9 19h6c2.828 0 4.243 0 5.121-.879C21 17.243 21 15.828 21 13v-2c0-2.828 0-4.243-.879-5.121C19.243 5 17.828 5 15 5H9c-2.828 0-4.243 0-5.121.879zm2.676 2.289a1 1 0 00-1.11 1.664l5.446 3.63a2 2 0 002.218 0l5.446-3.63a1 1 0 00-1.11-1.664L12 11.798l-5.445-3.63z" fill="#140848"/></svg><svg fill="none" viewBox="0 0 24 24" id="header--email" xmlns="http://www.w3.org/2000/svg"><path fill-rule="evenodd" clip-rule="evenodd" d="M3.879 5.879C3 6.757 3 8.172 3 11v2c0 2.828 0 4.243.879 5.121C4.757 19 6.172 19 9 19h6c2.828 0 4.243 0 5.121-.879C21 17.243 21 15.828 21 13v-2c0-2.828 0-4.243-.879-5.121C19.243 5 17.828 5 15 5H9c-2.828 0-4.243 0-5.121.879zm2.676 2.289a1 1 0 00-1.11 1.664l5.446 3.63a2 2 0 002.218 0l5.446-3.63a1 1 0 00-1.11-1.664L12 11.798l-5.445-3.63z" fill="#140848"/></svg><svg fill="none" viewBox="0 0 24 24" id="header--geo" xmlns="http://www.w3.org/2000/svg"><path fill-rule="evenodd" clip-rule="evenodd" d="M12.398 19.804C13.881 19.034 19 16.016 19 11a7 7 0 10-14 0c0 5.016 5.119 8.035 6.602 8.804a.855.855 0 00.796 0zM12 14a3 3 0 100-6 3 3 0 000 6z" fill="#140848"/></svg><svg fill="none" viewBox="0 0 24 24" id="header--geo" xmlns="http://www.w3.org/2000/svg"><path fill-rule="evenodd" clip-rule="evenodd" d="M12.398 19.804C13.881 19.034 19 16.016 19 11a7 7 0 10-14 0c0 5.016 5.119 8.035 6.602 8.804a.855.855 0 00.796 0zM12 14a3 3 0 100-6 3 3 0 000 6z" fill="#140848"/></svg><svg fill="none" viewBox="0 0 24 24" id="header--phone" xmlns="http://www.w3.org/2000/svg"><path d="M6.68 3.32l.613-.613a1 1 0 011.414 0l2.586 2.586a1 1 0 010 1.414L9.5 8.5a.982.982 0 00-.183 1.133 11.293 11.293 0 005.05 5.05.982.982 0 001.133-.184l1.793-1.792a1 1 0 011.414 0l2.586 2.586a1 1 0 010 1.414l-.613.613a6 6 0 01-7.843.558l-1.208-.907a22.996 22.996 0 01-4.6-4.6l-.907-1.208A6 6 0 016.68 3.32z" fill="#140848"/></svg><svg fill="none" viewBox="0 0 24 24" id="header--phone" xmlns="http://www.w3.org/2000/svg"><path d="M6.68 3.32l.613-.613a1 1 0 011.414 0l2.586 2.586a1 1 0 010 1.414L9.5 8.5a.982.982 0 00-.183 1.133 11.293 11.293 0 005.05 5.05.982.982 0 001.133-.184l1.793-1.792a1 1 0 011.414 0l2.586 2.586a1 1 0 010 1.414l-.613.613a6 6 0 01-7.843.558l-1.208-.907a22.996 22.996 0 01-4.6-4.6l-.907-1.208A6 6 0 016.68 3.32z" fill="#140848"/></svg><svg fill="none" viewBox="0 0 176 39" id="logo" xmlns="http://www.w3.org/2000/svg"><path d="M56.036 10.486c-2.96 0-4.34 1.979-4.34 4.947v10.09c0 2.968 1.38 4.947 4.34 4.947s4.34-1.979 4.34-4.947V23.15h-1.972v2.572c0 1.78-.79 2.77-2.368 2.77-1.579 0-2.368-.99-2.368-2.77V15.235c0-1.78.79-2.77 2.368-2.77 1.578 0 2.368.99 2.368 2.77v1.78h1.973v-1.78c0-2.77-1.382-4.749-4.341-4.749zm23.677 15.63l.79 3.958h2.17l-3.75-19.39h-3.156l-3.75 19.588h1.974l.79-3.957h4.932v-.198zm-2.565-13.058l2.17 11.278h-4.34l2.17-11.278zm22.493 17.016V12.663h3.552v-1.979h-9.274v1.979h3.552v17.609h2.17v-.198zm25.256-19.39h-2.171l-1.775 6.727-1.184 4.947-1.381-4.947-1.973-6.727h-2.171l4.538 14.444-.394 1.187c-.395 1.385-1.184 1.978-2.763 1.978v1.979c3.552.198 4.538-1.385 5.13-4.353l4.144-15.235zm11.838 0v19.588h2.171v-7.716h1.973c3.157 0 4.538-1.583 4.538-4.749v-2.374c0-2.968-1.381-4.749-4.341-4.749h-4.341zm2.171 9.695v-7.914h2.17c1.579 0 2.171.791 2.171 2.77v2.572c0 1.78-.79 2.572-2.368 2.572h-1.973zm25.255.99v8.705h2.171v-19.39h-2.171v8.706h-4.735v-8.706h-2.17v19.588h2.17v-8.706h4.735v-.198z" fill="#140848"/><path fill-rule="evenodd" clip-rule="evenodd" d="M8.09 21.368c0 7.32 5.919 13.059 13.022 13.059 4.34 0 8.09-1.979 10.458-5.145a13.45 13.45 0 01-7.893 2.573c-7.3 0-13.022-5.936-13.022-13.059 0-2.968.986-5.738 2.565-7.914-3.157 2.374-5.13 6.133-5.13 10.486z" fill="#201547"/><path d="M8.287 21.369c0 3.561 1.381 6.727 3.749 9.1 2.368 2.375 5.525 3.76 9.076 3.76 1.973 0 3.946-.395 5.722-1.385 1.381-.791 2.762-1.78 3.946-2.968-.789.594-1.776.99-2.762 1.385a14.979 14.979 0 01-4.143.594c-3.552 0-6.906-1.385-9.274-3.957-2.368-2.375-3.946-5.738-3.946-9.3 0-1.384.197-2.967.592-4.154.394-.99.789-1.979 1.38-2.77-1.183 1.187-2.17 2.374-2.959 3.957-.986 1.583-1.381 3.561-1.381 5.738zm3.552 9.299c-2.368-2.374-3.947-5.738-3.947-9.3 0-2.176.592-4.154 1.382-5.935.986-1.78 2.17-3.364 3.946-4.749l.789-.593-.592.791c-.79 1.187-1.578 2.375-1.973 3.76-.395 1.187-.592 2.572-.592 4.155 0 3.56 1.381 6.726 3.749 9.1 2.368 2.375 5.525 3.76 9.076 3.76 1.381 0 2.762-.198 4.144-.593 1.38-.396 2.565-1.188 3.748-1.98l.79-.593-.79.792a13.373 13.373 0 01-4.735 3.957c-1.776.99-3.749 1.385-5.92 1.385-3.55 0-6.708-1.583-9.075-3.957z" fill="#fff"/><path fill-rule="evenodd" clip-rule="evenodd" d="M13.22 10.882a13.538 13.538 0 00-2.565 7.914c0 7.123 5.919 13.059 13.022 13.059 2.96 0 5.722-.99 7.893-2.572a13.537 13.537 0 002.565-7.915c0-7.122-5.92-13.058-13.023-13.058-2.96 0-5.722.99-7.892 2.572z" fill="#9DA1A2"/><path d="M13.417 11.08c-.79.99-1.579 2.177-1.973 3.562-.395 1.187-.592 2.572-.592 4.155 0 3.56 1.381 6.727 3.749 9.1 2.368 2.375 5.524 3.76 9.076 3.76 1.381 0 2.762-.198 4.144-.593 1.38-.396 2.565-1.188 3.551-1.979.79-1.187 1.381-2.374 1.973-3.561.395-1.188.592-2.573.592-4.155 0-3.562-1.381-6.727-3.749-9.102a12.664 12.664 0 00-9.076-3.759c-1.381 0-2.762.198-4.143.594-1.382.395-2.565.989-3.552 1.978zm-2.17 3.364c.394-1.385 1.184-2.572 1.973-3.76 1.184-.791 2.367-1.582 3.749-1.978a14.981 14.981 0 014.143-.594c3.552 0 6.906 1.385 9.274 3.957 2.367 2.375 3.946 5.738 3.946 9.3 0 1.385-.197 2.967-.592 4.155-.395 1.385-1.184 2.572-1.973 3.759-1.184.791-2.368 1.583-3.75 1.978a14.982 14.982 0 01-4.143.594c-3.551 0-6.905-1.385-9.273-3.957-2.368-2.374-3.946-5.738-3.946-9.3-.198-1.384 0-2.77.592-4.154z" fill="#fff"/><path fill-rule="evenodd" clip-rule="evenodd" d="M19.336 6.331c-3.748 1.385-6.708 4.353-7.892 8.112l7.892-8.112zm16.772 16.62l-8.09 8.112c3.749-1.187 6.709-4.352 8.09-8.112zm.197-7.518L20.323 31.459c.986.198 2.17.396 3.157.396L36.7 18.598c0-1.187-.198-2.176-.395-3.165zm-2.565-4.947l-18.35 18.4c.592.594 1.381.99 2.17 1.386l17.561-17.61c-.197-.79-.79-1.582-1.381-2.176zm-3.946-3.363l-17.56 17.609c.394.791.986 1.583 1.38 2.176l18.35-18.4c-.79-.396-1.381-.99-2.17-1.385zm-5.92-1.385l-13.22 13.058c0 1.187.198 2.177.395 3.166L27.031 5.936c-.986-.198-2.17-.198-3.156-.198z" fill="#F2CE14"/><path d="M18.744 6.727c-1.578.594-2.96 1.583-4.143 2.77-1.184 1.385-2.17 2.77-2.763 4.353l6.906-7.123zM14.404 9.3c1.38-1.385 2.96-2.374 4.932-3.165l.592-.198-.394.593-8.09 8.112-.395.396.198-.594c.591-1.978 1.775-3.759 3.157-5.144zm21.309 14.246l-7.103 7.123c1.578-.594 2.96-1.583 4.143-2.77 1.184-1.187 2.17-2.572 2.96-4.353zm-7.892 7.518l8.09-8.112.394-.395-.197.593c-.592 1.979-1.776 3.562-3.157 4.947-1.381 1.384-3.157 2.572-4.933 3.165l-.592.198.395-.396zm8.484-15.432L20.718 31.26c.394.198.789.198 1.38.198.593 0 .987.198 1.58.198l13.021-13.058c0-.594 0-.99-.197-1.583 0-.594-.197-.99-.197-1.385zm-16.18 15.63l15.983-16.026.197-.198v.198c.197.594.197.99.395 1.583 0 .593.197 1.187.197 1.583l-13.22 13.454c-.592 0-1.184 0-1.578-.198-.592 0-1.184-.198-1.579-.396h-.395zM33.74 10.684L15.587 28.887c.395.198.592.396.987.593.395.198.592.396.986.594l17.364-17.411c-.198-.396-.395-.792-.592-.99 0-.395-.395-.79-.592-.989zM15.39 28.69l18.35-18.4.197-.198.198.198c.197.395.591.791.789.989l.592 1.187v.198L17.758 30.47h-.197l-1.184-.594c-.395-.198-.79-.593-1.184-.791l.197-.396zM29.794 7.321L12.43 24.732c.197.396.394.791.591.99.198.395.395.593.592.989L31.767 8.508c-.395-.198-.592-.396-.987-.594-.394-.198-.592-.395-.986-.593zM12.036 24.732l17.56-17.807 1.184.594c.395.197.79.593.987.791l.197.198-.197.198-18.35 18.4-.197.198-.198-.198c-.197-.395-.591-.791-.789-.989.197-.396 0-.791-.197-1.385zM23.874 5.738L10.852 18.994c0 .594 0 .99.197 1.583 0 .396.198.99.198 1.385l15.587-15.63c-.592-.198-.986-.396-1.381-.396-.592 0-.987-.198-1.579-.198zM10.457 18.796L23.677 5.54c.592 0 1.184 0 1.579.198.591 0 1.183.198 1.578.396h.197l-.197.197-15.982 16.027-.197.198v-.198c-.198-.594-.198-.99-.395-1.583.197-.791.197-1.385.197-1.979z" fill="#fff"/><path fill-rule="evenodd" clip-rule="evenodd" d="M34.727 9.497L9.274 35.02a8.76 8.76 0 002.17 1.583l24.861-24.93a8.787 8.787 0 00-1.578-2.176z" fill="#201547"/><path d="M34.727 9.695L9.47 35.021c.197.197.592.395.986.791.395.198.592.396.987.594l24.664-24.732c-.198-.396-.395-.594-.592-.99-.395-.395-.592-.593-.79-.989zM9.077 35.021L34.528 9.299l.197-.197.198.197c.197.396.592.594.789.99.197.395.592.791.79 1.187v.198L11.442 36.8h-.196c-.395-.198-.79-.593-1.184-.791-.395-.198-.79-.594-.987-.791v-.198z" fill="#fff"/></svg><svg fill="none" viewBox="0 0 176 39" id="logo" xmlns="http://www.w3.org/2000/svg"><path d="M56.036 10.486c-2.96 0-4.34 1.979-4.34 4.947v10.09c0 2.968 1.38 4.947 4.34 4.947s4.34-1.979 4.34-4.947V23.15h-1.972v2.572c0 1.78-.79 2.77-2.368 2.77-1.579 0-2.368-.99-2.368-2.77V15.235c0-1.78.79-2.77 2.368-2.77 1.578 0 2.368.99 2.368 2.77v1.78h1.973v-1.78c0-2.77-1.382-4.749-4.341-4.749zm23.677 15.63l.79 3.958h2.17l-3.75-19.39h-3.156l-3.75 19.588h1.974l.79-3.957h4.932v-.198zm-2.565-13.058l2.17 11.278h-4.34l2.17-11.278zm22.493 17.016V12.663h3.552v-1.979h-9.274v1.979h3.552v17.609h2.17v-.198zm25.256-19.39h-2.171l-1.775 6.727-1.184 4.947-1.381-4.947-1.973-6.727h-2.171l4.538 14.444-.394 1.187c-.395 1.385-1.184 1.978-2.763 1.978v1.979c3.552.198 4.538-1.385 5.13-4.353l4.144-15.235zm11.838 0v19.588h2.171v-7.716h1.973c3.157 0 4.538-1.583 4.538-4.749v-2.374c0-2.968-1.381-4.749-4.341-4.749h-4.341zm2.171 9.695v-7.914h2.17c1.579 0 2.171.791 2.171 2.77v2.572c0 1.78-.79 2.572-2.368 2.572h-1.973zm25.255.99v8.705h2.171v-19.39h-2.171v8.706h-4.735v-8.706h-2.17v19.588h2.17v-8.706h4.735v-.198z" fill="#140848"/><path fill-rule="evenodd" clip-rule="evenodd" d="M8.09 21.368c0 7.32 5.919 13.059 13.022 13.059 4.34 0 8.09-1.979 10.458-5.145a13.45 13.45 0 01-7.893 2.573c-7.3 0-13.022-5.936-13.022-13.059 0-2.968.986-5.738 2.565-7.914-3.157 2.374-5.13 6.133-5.13 10.486z" fill="#201547"/><path d="M8.287 21.369c0 3.561 1.381 6.727 3.749 9.1 2.368 2.375 5.525 3.76 9.076 3.76 1.973 0 3.946-.395 5.722-1.385 1.381-.791 2.762-1.78 3.946-2.968-.789.594-1.776.99-2.762 1.385a14.979 14.979 0 01-4.143.594c-3.552 0-6.906-1.385-9.274-3.957-2.368-2.375-3.946-5.738-3.946-9.3 0-1.384.197-2.967.592-4.154.394-.99.789-1.979 1.38-2.77-1.183 1.187-2.17 2.374-2.959 3.957-.986 1.583-1.381 3.561-1.381 5.738zm3.552 9.299c-2.368-2.374-3.947-5.738-3.947-9.3 0-2.176.592-4.154 1.382-5.935.986-1.78 2.17-3.364 3.946-4.749l.789-.593-.592.791c-.79 1.187-1.578 2.375-1.973 3.76-.395 1.187-.592 2.572-.592 4.155 0 3.56 1.381 6.726 3.749 9.1 2.368 2.375 5.525 3.76 9.076 3.76 1.381 0 2.762-.198 4.144-.593 1.38-.396 2.565-1.188 3.748-1.98l.79-.593-.79.792a13.373 13.373 0 01-4.735 3.957c-1.776.99-3.749 1.385-5.92 1.385-3.55 0-6.708-1.583-9.075-3.957z" fill="#fff"/><path fill-rule="evenodd" clip-rule="evenodd" d="M13.22 10.882a13.538 13.538 0 00-2.565 7.914c0 7.123 5.919 13.059 13.022 13.059 2.96 0 5.722-.99 7.893-2.572a13.537 13.537 0 002.565-7.915c0-7.122-5.92-13.058-13.023-13.058-2.96 0-5.722.99-7.892 2.572z" fill="#9DA1A2"/><path d="M13.417 11.08c-.79.99-1.579 2.177-1.973 3.562-.395 1.187-.592 2.572-.592 4.155 0 3.56 1.381 6.727 3.749 9.1 2.368 2.375 5.524 3.76 9.076 3.76 1.381 0 2.762-.198 4.144-.593 1.38-.396 2.565-1.188 3.551-1.979.79-1.187 1.381-2.374 1.973-3.561.395-1.188.592-2.573.592-4.155 0-3.562-1.381-6.727-3.749-9.102a12.664 12.664 0 00-9.076-3.759c-1.381 0-2.762.198-4.143.594-1.382.395-2.565.989-3.552 1.978zm-2.17 3.364c.394-1.385 1.184-2.572 1.973-3.76 1.184-.791 2.367-1.582 3.749-1.978a14.981 14.981 0 014.143-.594c3.552 0 6.906 1.385 9.274 3.957 2.367 2.375 3.946 5.738 3.946 9.3 0 1.385-.197 2.967-.592 4.155-.395 1.385-1.184 2.572-1.973 3.759-1.184.791-2.368 1.583-3.75 1.978a14.982 14.982 0 01-4.143.594c-3.551 0-6.905-1.385-9.273-3.957-2.368-2.374-3.946-5.738-3.946-9.3-.198-1.384 0-2.77.592-4.154z" fill="#fff"/><path fill-rule="evenodd" clip-rule="evenodd" d="M19.336 6.331c-3.748 1.385-6.708 4.353-7.892 8.112l7.892-8.112zm16.772 16.62l-8.09 8.112c3.749-1.187 6.709-4.352 8.09-8.112zm.197-7.518L20.323 31.459c.986.198 2.17.396 3.157.396L36.7 18.598c0-1.187-.198-2.176-.395-3.165zm-2.565-4.947l-18.35 18.4c.592.594 1.381.99 2.17 1.386l17.561-17.61c-.197-.79-.79-1.582-1.381-2.176zm-3.946-3.363l-17.56 17.609c.394.791.986 1.583 1.38 2.176l18.35-18.4c-.79-.396-1.381-.99-2.17-1.385zm-5.92-1.385l-13.22 13.058c0 1.187.198 2.177.395 3.166L27.031 5.936c-.986-.198-2.17-.198-3.156-.198z" fill="#F2CE14"/><path d="M18.744 6.727c-1.578.594-2.96 1.583-4.143 2.77-1.184 1.385-2.17 2.77-2.763 4.353l6.906-7.123zM14.404 9.3c1.38-1.385 2.96-2.374 4.932-3.165l.592-.198-.394.593-8.09 8.112-.395.396.198-.594c.591-1.978 1.775-3.759 3.157-5.144zm21.309 14.246l-7.103 7.123c1.578-.594 2.96-1.583 4.143-2.77 1.184-1.187 2.17-2.572 2.96-4.353zm-7.892 7.518l8.09-8.112.394-.395-.197.593c-.592 1.979-1.776 3.562-3.157 4.947-1.381 1.384-3.157 2.572-4.933 3.165l-.592.198.395-.396zm8.484-15.432L20.718 31.26c.394.198.789.198 1.38.198.593 0 .987.198 1.58.198l13.021-13.058c0-.594 0-.99-.197-1.583 0-.594-.197-.99-.197-1.385zm-16.18 15.63l15.983-16.026.197-.198v.198c.197.594.197.99.395 1.583 0 .593.197 1.187.197 1.583l-13.22 13.454c-.592 0-1.184 0-1.578-.198-.592 0-1.184-.198-1.579-.396h-.395zM33.74 10.684L15.587 28.887c.395.198.592.396.987.593.395.198.592.396.986.594l17.364-17.411c-.198-.396-.395-.792-.592-.99 0-.395-.395-.79-.592-.989zM15.39 28.69l18.35-18.4.197-.198.198.198c.197.395.591.791.789.989l.592 1.187v.198L17.758 30.47h-.197l-1.184-.594c-.395-.198-.79-.593-1.184-.791l.197-.396zM29.794 7.321L12.43 24.732c.197.396.394.791.591.99.198.395.395.593.592.989L31.767 8.508c-.395-.198-.592-.396-.987-.594-.394-.198-.592-.395-.986-.593zM12.036 24.732l17.56-17.807 1.184.594c.395.197.79.593.987.791l.197.198-.197.198-18.35 18.4-.197.198-.198-.198c-.197-.395-.591-.791-.789-.989.197-.396 0-.791-.197-1.385zM23.874 5.738L10.852 18.994c0 .594 0 .99.197 1.583 0 .396.198.99.198 1.385l15.587-15.63c-.592-.198-.986-.396-1.381-.396-.592 0-.987-.198-1.579-.198zM10.457 18.796L23.677 5.54c.592 0 1.184 0 1.579.198.591 0 1.183.198 1.578.396h.197l-.197.197-15.982 16.027-.197.198v-.198c-.198-.594-.198-.99-.395-1.583.197-.791.197-1.385.197-1.979z" fill="#fff"/><path fill-rule="evenodd" clip-rule="evenodd" d="M34.727 9.497L9.274 35.02a8.76 8.76 0 002.17 1.583l24.861-24.93a8.787 8.787 0 00-1.578-2.176z" fill="#201547"/><path d="M34.727 9.695L9.47 35.021c.197.197.592.395.986.791.395.198.592.396.987.594l24.664-24.732c-.198-.396-.395-.594-.592-.99-.395-.395-.592-.593-.79-.989zM9.077 35.021L34.528 9.299l.197-.197.198.197c.197.396.592.594.789.99.197.395.592.791.79 1.187v.198L11.442 36.8h-.196c-.395-.198-.79-.593-1.184-.791-.395-.198-.79-.594-.987-.791v-.198z" fill="#fff"/></svg></svg>