<svg width="58" height="58" viewBox="0 0 58 58" fill="none" xmlns="http://www.w3.org/2000/svg">
<path fill-rule="evenodd" clip-rule="evenodd" d="M0 29C0 12.9837 12.984 0 29 0C45.016 0 58 12.9837 58 29C58 45.0163 45.016 58 29 58C12.984 58 0 45.0163 0 29ZM24.5231 39.5998L39.0231 30.5373C39.5528 30.2055 39.875 29.6249 39.875 29.0001C39.875 28.3754 39.5528 27.7948 39.0231 27.4629L24.5231 18.4004C23.9643 18.0508 23.2598 18.0313 22.6837 18.3526C22.1075 18.672 21.75 19.2783 21.75 19.9376V38.0626C21.75 38.7219 22.1075 39.3282 22.6837 39.6477C22.9576 39.7999 23.2603 39.8751 23.5625 39.8751C23.8961 39.8751 24.2297 39.783 24.5231 39.5998Z" fill="#F2CD00"/>
</svg>
