<svg width="40" height="40" viewBox="0 0 40 40" fill="none" xmlns="http://www.w3.org/2000/svg">
<path fill-rule="evenodd" clip-rule="evenodd" d="M0 20C0 8.9543 8.95445 0 20 0C31.0455 0 40 8.9543 40 20C40 31.0457 31.0455 40 20 40C8.95445 40 0 31.0457 0 20ZM16.9125 27.3102L26.9125 21.0602C27.2778 20.8313 27.5 20.4309 27.5 20C27.5 19.5691 27.2778 19.1688 26.9125 18.9398L16.9125 12.6898C16.5271 12.4487 16.0413 12.4353 15.6439 12.6569C15.2466 12.8772 15 13.2953 15 13.75V26.25C15 26.7047 15.2466 27.1228 15.6439 27.3431C15.8328 27.4481 16.0416 27.5 16.25 27.5C16.4801 27.5 16.7102 27.4365 16.9125 27.3102Z" fill="#F2CD00"/>
</svg>
