<svg width="50" height="50" viewBox="0 0 50 50" fill="none" xmlns="http://www.w3.org/2000/svg">
<path fill-rule="evenodd" clip-rule="evenodd" d="M7.21797 7.21663C4.16797 10.2708 4.16797 15.1791 4.16797 25C4.16797 34.8208 4.16797 39.7312 7.21797 42.7812C10.2721 45.8333 15.1805 45.8333 25.0013 45.8333C34.8221 45.8333 39.7326 45.8333 42.7826 42.7812C45.8346 39.7333 45.8346 34.8208 45.8346 25C45.8346 15.1791 45.8346 10.2687 42.7826 7.21663C39.7346 4.16663 34.8221 4.16663 25.0013 4.16663C15.1805 4.16663 10.2701 4.16663 7.21797 7.21663ZM20.843 10.9395C21.257 10.9434 21.6526 11.1114 21.9428 11.4067C22.2331 11.7021 22.3942 12.1005 22.3909 12.5145C22.3763 14.2875 22.3221 15.8 22.0763 17.0562C21.8221 18.3541 21.343 19.4854 20.4138 20.4145C19.4846 21.3437 18.3513 21.8229 17.0534 22.077C15.7992 22.3229 14.2867 22.377 12.5138 22.3916C12.3086 22.3933 12.1051 22.3545 11.9149 22.2775C11.7247 22.2005 11.5515 22.0868 11.4053 21.9428C11.259 21.7989 11.1426 21.6276 11.0625 21.4386C10.9825 21.2497 10.9404 21.0468 10.9388 20.8416C10.9372 20.6364 10.976 20.4329 11.053 20.2427C11.13 20.0525 11.2437 19.8794 11.3876 19.7331C11.5315 19.5869 11.7029 19.4704 11.8918 19.3903C12.0808 19.3103 12.2836 19.2683 12.4888 19.2666C14.2721 19.252 15.5159 19.1937 16.4534 19.0104C17.3471 18.8354 17.8409 18.5687 18.2034 18.2041C18.568 17.8416 18.8346 17.3479 19.0096 16.4541C19.193 15.5166 19.2513 14.2708 19.2659 12.4895C19.2675 12.2842 19.3096 12.0811 19.3898 11.8921C19.47 11.703 19.5866 11.5316 19.7331 11.3876C19.8796 11.2436 20.053 11.13 20.2434 11.0531C20.4339 10.9762 20.6376 10.9376 20.843 10.9395ZM29.1555 10.9395C29.3607 10.9379 29.5642 10.9767 29.7544 11.0537C29.9446 11.1307 30.1177 11.2444 30.264 11.3883C30.4103 11.5323 30.5267 11.7036 30.6068 11.8925C30.6868 12.0815 30.7288 12.2843 30.7305 12.4895C30.7451 14.2708 30.8034 15.5166 30.9867 16.4541C31.1617 17.3479 31.4305 17.8416 31.793 18.2041C32.1555 18.5687 32.6492 18.8354 33.543 19.0104C34.4805 19.1937 35.7263 19.252 37.5096 19.2666C37.924 19.2702 38.32 19.4383 38.6105 19.7338C38.901 20.0294 39.0622 20.4283 39.0586 20.8427C39.055 21.2571 38.8869 21.6531 38.5914 21.9436C38.2958 22.234 37.8969 22.3952 37.4825 22.3916C35.7117 22.377 34.1971 22.3229 32.9409 22.077C31.643 21.8229 30.5117 21.3437 29.5826 20.4145C28.6534 19.4854 28.1763 18.352 27.9201 17.0541C27.6742 15.8 27.6201 14.2875 27.6055 12.5145C27.6021 12.1005 27.7633 11.7021 28.0535 11.4067C28.3438 11.1114 28.7393 10.9434 29.1534 10.9395H29.1555ZM12.5138 27.6062C12.0994 27.6029 11.7007 27.7643 11.4053 28.055C11.1099 28.3457 10.9421 28.7418 10.9388 29.1562C10.9355 29.5706 11.0969 29.9694 11.3876 30.2647C11.6783 30.5601 12.0744 30.7279 12.4888 30.7312C14.2721 30.7458 15.5159 30.8041 16.4534 30.9875C17.3471 31.1625 17.8409 31.4291 18.2034 31.7916C18.568 32.1562 18.8346 32.65 19.0096 33.5416C19.193 34.4791 19.2513 35.725 19.2659 37.5083C19.2695 37.9227 19.4375 38.3187 19.7331 38.6092C20.0287 38.8997 20.4275 39.0608 20.8419 39.0572C21.2563 39.0537 21.6523 38.8856 21.9428 38.59C22.2333 38.2945 22.3945 37.8956 22.3909 37.4812C22.3763 35.7104 22.3221 34.1979 22.0763 32.9416C21.8221 31.6437 21.343 30.5125 20.4138 29.5833C19.4846 28.6541 18.3513 28.175 17.0534 27.9208C15.7992 27.675 14.2867 27.6208 12.5138 27.6041V27.6062ZM39.0575 29.1541C39.0609 29.5682 38.8997 29.9666 38.6095 30.2619C38.3193 30.5572 37.9237 30.7253 37.5096 30.7291C35.7263 30.7458 34.4805 30.8041 33.543 30.9875C32.6492 31.1625 32.1555 31.4291 31.793 31.7916C31.4284 32.1562 31.1617 32.65 30.9867 33.5416C30.8034 34.4791 30.7451 35.725 30.7305 37.5083C30.7287 37.7135 30.6865 37.9163 30.6063 38.1052C30.5262 38.2941 30.4096 38.4653 30.2632 38.6092C30.1169 38.753 29.9437 38.8666 29.7534 38.9435C29.5631 39.0204 29.3596 39.059 29.1544 39.0572C28.9492 39.0555 28.7464 39.0133 28.5575 38.9331C28.3686 38.853 28.1974 38.7364 28.0535 38.59C27.9097 38.4437 27.7961 38.2704 27.7192 38.0802C27.6423 37.8899 27.6037 37.6864 27.6055 37.4812C27.6201 35.7104 27.6742 34.1979 27.9201 32.9416C28.1763 31.6437 28.6534 30.5125 29.5826 29.5833C30.5117 28.6541 31.6451 28.175 32.943 27.9208C34.1971 27.675 35.7096 27.6208 37.4825 27.6041C37.6877 27.6025 37.8913 27.6413 38.0815 27.7183C38.2717 27.7953 38.4448 27.909 38.5911 28.0529C38.7373 28.1968 38.8538 28.3682 38.9338 28.5571C39.0139 28.7461 39.0559 28.9489 39.0575 29.1541Z" fill="#140848"/>
</svg>
