<svg width="95" height="176" viewBox="0 0 95 176" fill="none" xmlns="http://www.w3.org/2000/svg">
<path d="M1.30404 36.4823C-5.11899 18.0707 12.9942 0 37.8722 0C58.777 0 75.7237 12.982 75.7237 28.9961V147.004C75.7237 163.018 58.777 176 37.8722 176C12.9942 176 -5.11899 157.929 1.30404 139.518L9.57382 115.812C15.9306 97.5905 15.9306 78.4095 9.57383 60.1877L1.30404 36.4823Z" fill="#150848"/>
<path d="M93.696 36.4823C100.119 18.0707 82.0058 0 57.1278 0C36.223 0 19.2763 12.982 19.2763 28.9961V147.004C19.2763 163.018 36.223 176 57.1278 176C82.0058 176 100.119 157.929 93.696 139.518L85.4262 115.812C79.0694 97.5905 79.0694 78.4095 85.4262 60.1877L93.696 36.4823Z" fill="#150848"/>
</svg>
