<svg width="50" height="50" viewBox="0 0 50 50" fill="none" xmlns="http://www.w3.org/2000/svg">
<path fill-rule="evenodd" clip-rule="evenodd" d="M34.0298 15.4678C39.1555 20.5934 39.1555 28.9037 34.0298 34.0293C28.9042 39.1549 20.5939 39.1549 15.4683 34.0293C10.3426 28.9037 10.3426 20.5934 15.4683 15.4678C20.5939 10.3421 28.9042 10.3421 34.0298 15.4678ZM24.7491 33.9981C24.1968 33.9981 23.7491 33.5504 23.7491 32.9981L23.7491 25.7485L16.4995 25.7485C15.9472 25.7485 15.4995 25.3008 15.4995 24.7485C15.4995 24.1963 15.9472 23.7485 16.4995 23.7485L23.7491 23.7485L23.7491 16.499C23.7491 15.9467 24.1968 15.499 24.7491 15.499C25.3013 15.499 25.7491 15.9467 25.7491 16.499L25.7491 23.7485L32.9986 23.7485C33.5509 23.7485 33.9986 24.1962 33.9986 24.7485C33.9986 25.3008 33.5509 25.7485 32.9986 25.7485L25.7491 25.7485L25.7491 32.9981C25.7491 33.5504 25.3013 33.9981 24.7491 33.9981Z" fill="#150848"/>
</svg>
