<svg width="40" height="40" viewBox="0 0 40 40" fill="none" xmlns="http://www.w3.org/2000/svg">
<path fill-rule="evenodd" clip-rule="evenodd" d="M20.666 3.33325V12.9999L20.666 13.0543C20.6659 13.4784 20.6658 13.8905 20.7115 14.2304C20.7631 14.6136 20.8886 15.0509 21.2518 15.4141C21.615 15.7773 22.0523 15.9029 22.4355 15.9544C22.7754 16.0001 23.1875 16 23.6116 15.9999L23.666 15.9999H33.3327V26.6666C33.3327 31.3806 33.3327 33.7377 31.8682 35.2021C30.4037 36.6666 28.0467 36.6666 23.3327 36.6666H16.666C11.952 36.6666 9.59495 36.6666 8.13048 35.2021C6.66602 33.7377 6.66602 31.3806 6.66602 26.6666V13.3333C6.66602 8.61921 6.66602 6.26218 8.13048 4.79772C9.59495 3.33325 11.952 3.33325 16.666 3.33325H20.666ZM22.666 3.3336V12.9999C22.666 13.4996 22.6681 13.7738 22.6937 13.9639L22.6947 13.9712L22.702 13.9722C22.8922 13.9978 23.1663 13.9999 23.666 13.9999H33.3323C33.3296 12.9156 33.3046 12.3165 33.0789 11.7717C32.8252 11.1591 32.3435 10.6774 31.3801 9.71397L26.952 5.28587C25.9885 4.32244 25.5068 3.84072 24.8942 3.58699C24.3495 3.36133 23.7503 3.33636 22.666 3.3336ZM13.9993 21.6666C13.9993 21.1143 14.4471 20.6666 14.9993 20.6666H24.9993C25.5516 20.6666 25.9993 21.1143 25.9993 21.6666C25.9993 22.2189 25.5516 22.6666 24.9993 22.6666H14.9993C14.4471 22.6666 13.9993 22.2189 13.9993 21.6666ZM14.9993 27.3333C14.4471 27.3333 13.9993 27.781 13.9993 28.3333C13.9993 28.8855 14.4471 29.3333 14.9993 29.3333H21.666C22.2183 29.3333 22.666 28.8855 22.666 28.3333C22.666 27.781 22.2183 27.3333 21.666 27.3333H14.9993Z" fill="white"/>
</svg>
