<svg width="30" height="30" viewBox="0 0 30 30" fill="none" xmlns="http://www.w3.org/2000/svg">
<path fill-rule="evenodd" clip-rule="evenodd" d="M29.25 15C29.25 22.8701 22.8701 29.25 15 29.25C7.12994 29.25 0.75 22.8701 0.75 15C0.75 7.12994 7.12994 0.75 15 0.75C22.8701 0.75 29.25 7.12994 29.25 15ZM7.95956 22.0404C7.56904 21.6499 7.56904 21.0168 7.95956 20.6262L13.5858 15L7.95956 9.37377C7.56904 8.98325 7.56904 8.35008 7.95956 7.95956C8.35008 7.56904 8.98325 7.56904 9.37377 7.95956L15 13.5858L20.6262 7.95956C21.0168 7.56903 21.6499 7.56904 22.0404 7.95956C22.431 8.35008 22.431 8.98325 22.0404 9.37377L16.4142 15L22.0404 20.6262C22.431 21.0168 22.431 21.6499 22.0404 22.0404C21.6499 22.431 21.0168 22.431 20.6262 22.0404L15 16.4142L9.37377 22.0404C8.98325 22.431 8.35008 22.431 7.95956 22.0404Z" fill="#201547"/>
</svg>
